<svg xmlns="http://www.w3.org/2000/svg" width="43" height="42" viewBox="0 0 43 42">
    <defs>
        <linearGradient id="yrij20ltea" x1="0%" x2="98.533%" y1="50%" y2="50%">
            <stop offset="0%" stop-color="#4650E3"/>
            <stop offset="100%" stop-color="#5AB9EB"/>
        </linearGradient>
    </defs>
    <g fill="none" fill-rule="evenodd">
        <g fill="url(#yrij20ltea)" transform="translate(-713 -605)">
            <g>
                <g>
                    <path d="M21 0C9.402 0 0 9.402 0 21s9.402 21 21 21 21-9.402 21-21C41.987 9.407 32.593.013 21 0zm0 38.5c-9.665 0-17.5-7.835-17.5-17.5S11.335 3.5 21 3.5 38.5 11.335 38.5 21c-.01 9.66-7.84 17.49-17.5 17.5zM29.75 21c0 .966-.784 1.75-1.75 1.75h-5.25V28c0 .966-.784 1.75-1.75 1.75s-1.75-.784-1.75-1.75v-5.25H14c-.966 0-1.75-.784-1.75-1.75s.784-1.75 1.75-1.75h5.25V14c0-.966.784-1.75 1.75-1.75s1.75.784 1.75 1.75v5.25H28c.966 0 1.75.784 1.75 1.75z" transform="translate(519.667 254) translate(194 351)"/>
                </g>
            </g>
        </g>
    </g>
</svg>
