<svg xmlns="http://www.w3.org/2000/svg" width="80" height="78" viewBox="0 0 80 78">
    <defs>
        <linearGradient id="le4z8axa6a" x1="50.017%" x2="50.017%" y1="92.718%" y2="4.014%">
            <stop offset="0%" stop-color="#4858E4"/>
            <stop offset="100%" stop-color="#528DE8"/>
        </linearGradient>
    </defs>
    <g fill="none" fill-rule="evenodd">
        <g fill-rule="nonzero">
            <g>
                <g>
                    <g>
                        <path fill="url(#le4z8axa6a)" d="M70.283 34.71H64.255c.05.332.066.68.066 1.011 0 3.908-3.18 7.104-7.104 7.104-3.909 0-7.105-3.18-7.105-7.104 0-.348.017-.679.066-1.01h-6.16c-1.126 0-2.037-.911-2.037-2.037V28.55c-.331.05-.68.067-1.01.067-3.909 0-7.105-3.18-7.105-7.105 0-3.925 3.18-7.104 7.105-7.104.347 0 .679.016 1.01.066V6.392c.662-.05 1.341-.082 2.037-.082.679 0 1.358.05 2.037.099.762.066 1.507.149 2.252.281.066.017.15.017.215.034.712.115 1.408.281 2.087.447.1.033.199.05.281.083.663.182 1.325.38 1.971.612l.298.1c.646.231 1.292.496 1.905.795.082.033.165.082.248.115.63.299 1.259.63 1.871.978l.1.05c3.908 2.285 7.17 5.53 9.472 9.439.05.066.083.149.133.215.331.563.63 1.16.91 1.755.067.133.117.249.183.381.265.58.513 1.176.729 1.772.05.15.115.298.165.447.215.597.398 1.21.563 1.822.05.166.083.315.116.48.166.63.298 1.259.414 1.905.033.149.05.298.066.43.1.663.2 1.342.249 2.037.05.696.1 1.391.1 2.087.032.695-.034 1.358-.1 2.037z" transform="translate(-680 -1768) translate(592 1745) translate(65) translate(23 23)"/>
                        <path fill="#000" d="M62.3 76.609h-4.057c-.728 0-1.325-.596-1.325-1.325s.597-1.325 1.325-1.325h2.733V51.752c0-.332.132-.663.364-.911l1.391-1.474c3.362-3.76 5.482-8.396 6.144-13.331h-3.213c-.165 4.504-3.875 8.114-8.412 8.114-4.538 0-8.264-3.61-8.413-8.114h-4.77c-1.854 0-3.361-1.507-3.361-3.362V29.94c-4.505-.165-8.115-3.875-8.115-8.412 0-4.538 3.61-8.264 8.115-8.413v-2.65c0-.728.596-1.325 1.325-1.325.728 0 1.324.597 1.324 1.325v4.024c0 .381-.165.746-.463.994-.298.248-.68.364-1.06.315-.265-.033-.547-.067-.828-.067-3.18 0-5.78 2.584-5.78 5.78s2.584 5.78 5.78 5.78c.281 0 .546-.017.828-.067.38-.05.762.05 1.06.315.298.249.463.613.463.994v4.123c0 .381.315.712.713.712h6.16c.38 0 .745.166 1.01.464.249.298.365.68.315 1.06-.033.265-.066.546-.066.828 0 3.18 2.583 5.78 5.78 5.78 3.179 0 5.779-2.584 5.779-5.78 0-.282-.017-.563-.066-.828-.05-.38.05-.762.314-1.06.249-.298.613-.464 1.01-.464h4.82c0-.231.016-.463.016-.712 0-.646-.05-1.291-.1-1.92-.049-.73.498-1.375 1.226-1.425.729-.05 1.375.497 1.424 1.226.05.679.1 1.39.1 2.136 0 6.823-2.5 13.38-7.055 18.465 0 .016-.017.016-.017.033l-1.043 1.093v23.02c-.05.744-.646 1.324-1.374 1.324zm-26.38 0c-.729 0-1.325-.596-1.325-1.325v-6.79h-8.827c-5.2 0-9.44-4.24-9.44-9.44v-6.789h-4.752c-1.193 0-2.302-.646-2.898-1.673-.596-1.026-.596-2.318-.017-3.345l7.668-13.43v-1.143c0-15.269 12.42-27.706 27.705-27.706 6.26 0 12.404 2.153 17.29 6.078 4.802 3.858 8.23 9.257 9.638 15.219.165.712-.265 1.424-.977 1.59-.712.165-1.424-.265-1.59-.977C65.695 15.534 55.693 7.6 44.05 7.6c-13.812 0-25.056 11.245-25.056 25.056v1.49c0 .233-.066.464-.182.663l-7.85 13.729c-.116.215-.116.48 0 .695.133.216.364.348.613.348h6.094c.729 0 1.325.596 1.325 1.325v8.115c0 3.742 3.047 6.79 6.79 6.79h10.151c.729 0 1.325.596 1.325 1.324v8.115c-.016.778-.613 1.358-1.341 1.358zm-9.125-36.516c-2.401 0-4.372-1.954-4.372-4.372 0-2.401 1.954-4.372 4.372-4.372 2.401 0 4.372 1.954 4.372 4.372s-1.97 4.372-4.372 4.372zm0-6.078c-.944 0-1.722.779-1.722 1.723 0 .944.778 1.722 1.722 1.722s1.722-.778 1.722-1.722-.778-1.723-1.722-1.723zM14.97 17.836H8.198c-.728 0-1.324-.597-1.324-1.325 0-.729.596-1.325 1.324-1.325h6.757c.729 0 1.325.596 1.325 1.325 0 .728-.58 1.325-1.308 1.325zM12.67 67.4c0-.728-.596-1.325-1.325-1.325H4.223c-.729 0-1.325.597-1.325 1.325 0 .729.596 1.325 1.325 1.325h7.12c.73 0 1.326-.596 1.326-1.325zm8.66 9.158c0-.728-.595-1.325-1.324-1.325H7.783c-.728 0-1.324.597-1.324 1.325 0 .729.596 1.325 1.324 1.325h12.222c.729 0 1.325-.596 1.325-1.325zM71.079 1.391c0-.729-.596-1.325-1.325-1.325s-1.325.596-1.325 1.325c0 1.888-1.54 3.445-3.445 3.445-.728 0-1.324.596-1.324 1.325 0 .728.596 1.324 1.324 1.324 3.362 0 6.095-2.732 6.095-6.094zm8.28 4.77c0-.73-.596-1.325-1.325-1.325-1.888 0-3.444-1.54-3.444-3.445 0-.729-.597-1.325-1.325-1.325-.729 0-1.325.596-1.325 1.325 0 3.362 2.732 6.094 6.094 6.094.729 0 1.325-.596 1.325-1.324zm-4.753 8.28c0-1.888 1.54-3.445 3.445-3.445.728 0 1.325-.596 1.325-1.325 0-.728-.597-1.325-1.325-1.325-3.362 0-6.095 2.733-6.095 6.095 0 .728.597 1.325 1.325 1.325.729 0 1.325-.597 1.325-1.325zm-3.527 0c0-3.362-2.733-6.095-6.095-6.095-.728 0-1.324.597-1.324 1.325 0 .729.596 1.325 1.324 1.325 1.888 0 3.445 1.54 3.445 3.445 0 .728.596 1.325 1.325 1.325s1.325-.597 1.325-1.325zm4.604 7.998c-.978 0-1.789.795-1.789 1.789 0 .977.795 1.789 1.789 1.789.993 0 1.788-.795 1.788-1.789-.016-.994-.811-1.789-1.788-1.789zM2.037 47.38c-.977 0-1.789.796-1.789 1.79 0 .976.795 1.788 1.789 1.788.994 0 1.788-.795 1.788-1.789 0-.993-.811-1.788-1.788-1.788zm69.488 22.225c-.977 0-1.789.795-1.789 1.788 0 .977.795 1.789 1.789 1.789.977 0 1.788-.795 1.788-1.789-.016-.977-.811-1.788-1.788-1.788z" transform="translate(-680 -1768) translate(592 1745) translate(65) translate(23 23)"/>
                        <path fill="#4A61E5" d="M10.102 1.11L0.017 11.195 0.017 1.11z" transform="translate(-680 -1768) translate(592 1745) translate(65) translate(23 23)"/>
                    </g>
                </g>
            </g>
        </g>
    </g>
</svg>
