<svg xmlns="http://www.w3.org/2000/svg" width="78" height="79" viewBox="0 0 78 79">
    <defs>
        <linearGradient id="nb2zxbenra" x1="50.017%" x2="50.017%" y1="92.718%" y2="4.014%">
            <stop offset="0%" stop-color="#4858E4"/>
            <stop offset="100%" stop-color="#528DE8"/>
        </linearGradient>
    </defs>
    <g fill="none" fill-rule="evenodd">
        <g fill-rule="nonzero">
            <g>
                <g>
                    <g>
                        <path fill="url(#nb2zxbenra)" d="M62.236 43.105c0 13.285-10.772 24.057-24.057 24.057-7.537 0-14.254-3.465-18.67-8.884 3.086 1.478 6.551 2.316 10.213 2.316 13.055 0 23.646-10.592 23.646-23.647 0-6.305-2.463-12.036-6.502-16.273 8.998 3.481 15.37 12.217 15.37 22.431z" transform="translate(-1107 -1496) translate(1018 1473) translate(66) translate(23 23)"/>
                        <g fill="#4A61E5">
                            <path d="M54.584 9.524L64.075.033 73.566 9.524zM5.83 68.837H.13V63.14H5.83v5.698zm9.08-5.682H9.212v5.698h5.698v-5.698zM23.975 68.837L18.277 68.837 18.277 63.139 23.975 63.139z" transform="translate(-1107 -1496) translate(1018 1473) translate(66) translate(23 23) translate(2.463 9.032)"/>
                        </g>
                        <path fill="#000" d="M14.96 18.835c0 .722-.592 1.314-1.314 1.314H1.527c-.722 0-1.314-.592-1.314-1.314 0-.723.592-1.314 1.314-1.314h12.119c.722 0 1.314.591 1.314 1.314zM11.232 62.76H8.637v-2.594c0-.723-.59-1.314-1.313-1.314s-1.314.591-1.314 1.314v2.594H3.432c-.723 0-1.314.591-1.314 1.314 0 .722.591 1.314 1.314 1.314h2.595v2.594c0 .723.59 1.314 1.313 1.314s1.314-.591 1.314-1.314V65.39h2.594c.723 0 1.314-.592 1.314-1.314 0-.723-.607-1.314-1.33-1.314zM21.594.016c-.723 0-1.314.592-1.314 1.314 0 1.872-1.527 3.416-3.416 3.416-.722 0-1.313.59-1.313 1.313s.59 1.314 1.313 1.314c3.334 0 6.043-2.71 6.043-6.043 0-.722-.59-1.314-1.313-1.314zm8.21 4.713c-1.872 0-3.415-1.527-3.415-3.415C26.389.59 25.797 0 25.075 0c-.723 0-1.314.591-1.314 1.314 0 3.333 2.71 6.043 6.043 6.043.723 0 1.314-.592 1.314-1.314 0-.723-.591-1.314-1.314-1.314zm0 3.498c-3.333 0-6.043 2.71-6.043 6.043 0 .722.591 1.314 1.314 1.314.722 0 1.314-.592 1.314-1.314 0-1.872 1.527-3.416 3.415-3.416.723 0 1.314-.59 1.314-1.313s-.591-1.314-1.314-1.314zm-12.923 0c-.723 0-1.314.591-1.314 1.314 0 .722.591 1.313 1.314 1.313 1.872 0 3.415 1.527 3.415 3.416 0 .722.592 1.314 1.314 1.314.723 0 1.314-.592 1.314-1.314-.017-3.334-2.726-6.043-6.043-6.043zM3.53 29.344c0-.968-.789-1.773-1.774-1.773S0 28.376 0 29.344c0 .97.788 1.774 1.773 1.774.986 0 1.758-.788 1.758-1.774zM76.292 21.2H65.931c-.723 0-1.314.59-1.314 1.313s.591 1.314 1.314 1.314h10.361c.723 0 1.314-.591 1.314-1.314 0-.722-.575-1.313-1.314-1.313zm-7.8 50.215c-.969 0-1.773.788-1.773 1.774 0 .968.788 1.773 1.773 1.773.97 0 1.774-.788 1.774-1.773-.017-.986-.805-1.774-1.774-1.774zM63.484 45.404c1.133-6.601-2.283-14.615-6.092-18.835l-.017-.016c-2.562-2.956-5.78-5.304-9.31-6.798-.674-.28-1.446.032-1.725.69-.279.672.033 1.444.69 1.723 2.25.953 4.335 2.283 6.19 3.925-4.597 2.266-8.276 5.813-10.476 10.115-1.938 3.794-2.545 7.833-1.806 11.643-.97.066-1.938.098-2.923.098-3.022 0-5.912-.23-8.605-.656-.115-1.33-.18-2.71-.18-4.106 0-11.97 4.647-22.152 10.28-22.792.196 0 .377.016.557.016.723.033 1.347-.509 1.38-1.248.016-.427-.164-.82-.46-1.067-.23-.23-.558-.361-.92-.361-.213 0-.427.016-.64.033-.41-.017-.838-.017-1.297-.017-4.023 0-7.751 1.035-9.902 2.004h-.017-.016c-3.53 1.494-6.733 3.842-9.294 6.798v.016l-.017.017c-4.63 5.156-6.683 11.462-6.108 18.769.328 3.941 1.543 7.652 3.596 11.035.016.033.05.082.082.115 4.384 5.73 8.637 8.834 15.731 11.445h.017c.016 0 .033.017.049.017.033 0 .05.016.082.016h.016c1.971.46 3.909.69 5.797.69.493 0 .985-.017 1.478-.05.148.017.312.017.476.017.18 0 .345-.033.493-.099 1.1-.114 2.2-.295 3.317-.558 8.013-1.28 13.449-7.783 15.978-11.56 0-.017.016-.017.016-.033l.016-.017c2.004-3.366 3.219-7.06 3.564-10.969zm-5.83 9.607c-.706 1.05-1.658 2.331-2.84 3.629-4.861-1.248-8.622-4.303-10.428-8.474 6.371-.82 12.316-2.84 16.569-5.665-.016.18-.05.345-.082.526 0 .016 0 .049-.017.065v.05c-.295 3.514-1.363 6.83-3.202 9.869zM45.076 37.407c2.069-4.056 5.649-7.34 10.115-9.327.066.082.132.148.197.23l.017.016s0 .017.016.017c2.332 2.578 5.123 7.767 5.583 12.89-4.023 3.252-10.46 5.583-17.439 6.404-.722-3.333-.197-6.88 1.51-10.23zm-7.061 13.17c1.215 0 2.446-.05 3.645-.132.066.181.132.345.197.526 1.905 4.614 5.78 8.096 10.822 9.787-2.447 2.167-5.567 4.072-9.278 4.663-.017 0-.033 0-.05.017-.016 0-.032 0-.049.016-1.248.296-2.496.477-3.71.559-4.55-.427-8.49-7.11-9.853-15.978 2.61.345 5.386.542 8.276.542zm-8.77-28.409s0-.016 0 0c.017-.016.017-.016.034-.016 1.001-.46 2.496-.952 4.253-1.297-4.155 4.286-6.913 12.595-6.913 22.332 0 1.232.049 2.43.13 3.613-2.085-.46-4.006-1.05-5.73-1.757.328-4.598-.05-9.82-2.086-14.254.575-.853 1.232-1.69 1.938-2.48l.017-.016.016-.016c2.266-2.66 5.156-4.778 8.342-6.109zM15.388 45.125v-.066c.87.575 1.806 1.117 2.824 1.61-.246 2.134-.64 4.056-1.035 5.55-.985-2.233-1.576-4.614-1.79-7.094zm-.05-3.383c.148-2.873.788-5.55 1.922-8.013 1.083 3.235 1.346 6.815 1.182 10.115-1.182-.64-2.217-1.346-3.104-2.102zm3.58 13.663c.608-1.56 1.363-4.32 1.806-7.636 1.922.739 4.024 1.33 6.29 1.773.92 6.963 3.3 12.694 6.535 16.01-.18-.032-.377-.081-.558-.114-6.388-2.365-10.148-5.025-14.073-10.033z" transform="translate(-1107 -1496) translate(1018 1473) translate(66) translate(23 23)"/>
                    </g>
                </g>
            </g>
        </g>
    </g>
</svg>
