<svg xmlns="http://www.w3.org/2000/svg" width="48" height="48" viewBox="0 0 48 48">
    <defs>
        <linearGradient id="zsk3cw4gha" x1="50.02%" x2="50.02%" y1="78.34%" y2="16.519%">
            <stop offset="0%" stop-color="#4241E1"/>
            <stop offset="100%" stop-color="#5DC6EC"/>
        </linearGradient>
    </defs>
    <g fill="none" fill-rule="evenodd">
        <g fill-rule="nonzero">
            <g>
                <path fill="url(#zsk3cw4gha)" d="M42.57 34.067c0 .05-17.677 7.976-17.677 7.976-.081.04-.172-.02-.172-.111v-.528c0-3.907 2.293-7.449 5.865-9.042l3.044-1.36c2.06-.923 3.39-2.963 3.39-5.226V19.87c0-3.237 1.928-6.17 4.901-7.449l.122-.05c.081-.031.477.01.477.01l.05 21.686z" transform="translate(-165 -471) translate(165 471)"/>
                <path fill="#000" d="M21.99 46.295c0 .447-.365.812-.811.812H4.364c-.447 0-.812-.365-.812-.812 0-.446.365-.812.812-.812h16.805c.456 0 .822.366.822.812zM47.159 2.66h-8.809c-.446 0-.812.365-.812.812 0 .446.366.811.812.811h8.809c.446 0 .812-.365.812-.811 0-.447-.356-.812-.812-.812zM3.877 41.972c0 .447.365.812.811.812h5.825c.447 0 .812-.365.812-.812 0-.446-.365-.812-.812-.812H4.688c-.446 0-.811.366-.811.812zM46.285 37h-1.603v-1.604c0-.446-.366-.812-.812-.812-.447 0-.812.366-.812.812V37h-1.603c-.447 0-.812.365-.812.811 0 .447.365.812.812.812h1.603v1.604c0 .446.365.811.812.811.446 0 .812-.365.812-.811v-1.604h1.603c.447 0 .812-.365.812-.812 0-.446-.355-.811-.812-.811zM4.1 5.723V4.12h1.603c.447 0 .812-.365.812-.812 0-.446-.365-.812-.812-.812H4.1V.893c0-.446-.366-.812-.812-.812-.447 0-.812.366-.812.812v1.603H.873c-.447 0-.812.366-.812.812 0 .447.365.812.812.812h1.603v1.603c0 .447.365.812.812.812.446 0 .812-.365.812-.812z" transform="translate(-165 -471) translate(165 471)"/>
                <path fill="#4241E1" d="M38.349 47.401L38.349 45.189 47.148 45.189 47.148 47.401z" transform="translate(-165 -471) translate(165 471)"/>
                <path fill="#5DC6EC" d="M30.647 47.401L36.421 41.627 36.421 47.401z" transform="translate(-165 -471) translate(165 471)"/>
                <path fill="#000" d="M42.307 10.94c-.04-.03-.081-.051-.132-.082-.132-.08-.274-.142-.426-.203-.03-.01-.061-.03-.091-.04l-5.795-1.928-.528-.173-9.803-3.267c-.537-.183-1.106-.183-1.644 0L7.794 10.625c-.04.01-.071.03-.102.04l-.152.061c-.142.061-.274.132-.396.224-.64.436-1.045 1.126-1.116 1.887v.04c-.01.072-.01.143-.01.224v19.697c0 1.025.609 1.959 1.542 2.375l16.115 7.164c.335.153.69.224 1.056.224.284 0 .568-.051.862-.163.061-.01.112-.03.173-.05.01 0 .02-.01.02-.01l16.115-7.165c.934-.416 1.543-1.35 1.543-2.375V13.091c0-.863-.427-1.664-1.137-2.151zm-27.511 5.043l1.958.842v5.359l-1.958-.792v-5.409zM33.174 9.51h.01l-15.638 5.896-1.42-.61 15.18-5.905 1.868.619zm-8.443 8.97l-5.024-2.15L35.64 10.33l4.627 1.542-15.536 6.606zm-.315-11.69c.203-.071.416-.071.62 0l3.855 1.289-14.897 5.804-4.739-2.03L24.416 6.79zm-16.785 26V13.09c0-.03 0-.071.01-.102 0-.02 0-.04.01-.05v-.01l5.521 2.364v6.657c0 .335.203.63.507.751l3.583 1.441c.101.04.203.061.304.061.163 0 .315-.05.457-.142.223-.152.355-.406.355-.67v-5.865l5.54 2.374v20.773L8.22 33.691c-.365-.162-.589-.517-.589-.903zm34.189 0c0 .385-.234.74-.579.892l-15.699 6.982V19.89l16.268-6.92c0 .04.01.08.01.12v19.698z" transform="translate(-165 -471) translate(165 471)"/>
            </g>
        </g>
    </g>
</svg>
