<svg xmlns="http://www.w3.org/2000/svg" width="84" height="78" viewBox="0 0 84 78">
    <defs>
        <linearGradient id="8ssy8e5kfa" x1="0%" x2="98.533%" y1="50%" y2="50%">
            <stop offset="0%" stop-color="#4650E3"/>
            <stop offset="100%" stop-color="#5AB9EB"/>
        </linearGradient>
    </defs>
    <g fill="none" fill-rule="evenodd">
        <g>
            <g>
                <g>
                    <g>
                        <path fill="url(#8ssy8e5kfa)" d="M62.192 8.72l-7.835 9.625c-1.286 1.58-1.043 3.908.538 5.194l2.571 2.085c1.581 1.285 1.824 3.613.539 5.194L36.29 57.414c-1.372 1.685-3.909 1.824-5.455.278l-14.158-14.14c-1.442-1.442-3.77-1.442-5.212 0L8.86 46.156l22.392 22.358c1.546 1.546 4.1 1.407 5.472-.295l39-48.294c.087-.105.07-.244-.034-.33L62.192 8.72z" transform="translate(-541 -1017) translate(452 992) translate(66) translate(23 25)"/>
                        <path fill="#000" fill-rule="nonzero" d="M34.136 72.806c-.365 0-.712-.14-.99-.4L7.869 47.147c-.26-.26-.4-.608-.4-.99 0-.365.14-.73.4-.99l4.135-4.134c.539-.539 1.425-.539 1.963 0 .539.538.539 1.424 0 1.963l-3.144 3.144 23.209 23.174 39.886-49.371-8.46-6.827c-.591-.487-.695-1.355-.209-1.963.486-.59 1.355-.695 1.963-.209l9.537 7.696c.296.226.47.573.504.938.035.365-.07.73-.295 1.025L35.23 72.285c-.243.312-.608.486-1.007.52h-.087zM32.71 46.574c-.364 0-.712-.139-.99-.4L21.246 35.718l-3.162 3.161c-.538.539-1.424.539-1.963 0-.538-.538-.538-1.424 0-1.963l4.152-4.152c.539-.538 1.425-.538 1.963 0l10.371 10.354L61.097 7.87c.487-.59 1.355-.694 1.963-.208.59.486.695 1.355.209 1.963L33.806 46.053c-.243.313-.608.486-1.008.521h-.087z" transform="translate(-541 -1017) translate(452 992) translate(66) translate(23 25)"/>
                        <path fill="#000" fill-rule="nonzero" d="M18.501 69.592c0 .764-.625 1.39-1.39 1.39H5.82c-.765 0-1.39-.626-1.39-1.39 0-.764.625-1.39 1.39-1.39H17.11c.765 0 1.39.626 1.39 1.39zm-.521-27.969c0-.764-.625-1.39-1.39-1.39H1.494c-.764 0-1.39.626-1.39 1.39 0 .765.626 1.39 1.39 1.39h15.079c.782 0 1.407-.608 1.407-1.39zm9.989-39.99c0 .869-.712 1.563-1.564 1.563-.85 0-1.563-.712-1.563-1.563S25.554.069 26.405.069c.852 0 1.564.695 1.564 1.564zm5.211 0c0 .869-.712 1.563-1.563 1.563s-1.564-.712-1.564-1.563.713-1.564 1.564-1.564c.851 0 1.563.695 1.563 1.564zm2.068 0c0-.869.712-1.564 1.563-1.564s1.564.713 1.564 1.564c0 .851-.713 1.563-1.564 1.563-.851 0-1.563-.694-1.563-1.563zM21.02.243H5.82c-.765 0-1.39.626-1.39 1.39v30.853c0 .764.625 1.39 1.39 1.39.764 0 1.39-.626 1.39-1.39V3.023h13.81c.764 0 1.39-.626 1.39-1.39 0-.764-.626-1.39-1.39-1.39zm20.916 2.78h15.218c.764 0 1.39-.626 1.39-1.39 0-.764-.626-1.39-1.39-1.39H41.936c-.765 0-1.39.626-1.39 1.39 0 .764.625 1.39 1.39 1.39zm40.65 72.128H37.002c-.764 0-1.39.625-1.39 1.39 0 .764.626 1.39 1.39 1.39h45.584c.765 0 1.39-.626 1.39-1.39 0-.765-.625-1.39-1.39-1.39zm0-6.949H48.572c-.764 0-1.39.626-1.39 1.39 0 .764.626 1.39 1.39 1.39h34.014c.765 0 1.39-.626 1.39-1.39 0-.764-.625-1.39-1.39-1.39zm-26.822-5.559c0 .765.625 1.39 1.39 1.39h25.432c.765 0 1.39-.625 1.39-1.39 0-.764-.625-1.39-1.39-1.39H57.154c-.782 0-1.39.626-1.39 1.39z" transform="translate(-541 -1017) translate(452 992) translate(66) translate(23 25)"/>
                        <g fill-rule="nonzero">
                            <path fill="#4A61E5" d="M2.693 5.35c-1.46 0-2.64-1.18-2.64-2.64 0-1.46 1.18-2.64 2.64-2.64 1.459 0 2.64 1.18 2.64 2.64 0 1.46-1.181 2.64-2.64 2.64zm11.326-2.64c0-1.46-1.181-2.64-2.64-2.64-1.46 0-2.64 1.18-2.64 2.64 0 1.46 1.18 2.64 2.64 2.64 1.459 0 2.64-1.18 2.64-2.64zm8.686 0c0-1.46-1.181-2.64-2.64-2.64-1.46 0-2.64 1.18-2.64 2.64 0 1.46 1.18 2.64 2.64 2.64 1.459 0 2.64-1.18 2.64-2.64zm-8.686 8.686c0-1.46-1.181-2.64-2.64-2.64-1.46 0-2.64 1.18-2.64 2.64 0 1.46 1.18 2.64 2.64 2.64 1.459 0 2.64-1.18 2.64-2.64zm-8.686 0c0-1.46-1.181-2.64-2.64-2.64-1.46 0-2.64 1.18-2.64 2.64 0 1.46 1.18 2.64 2.64 2.64 1.459 0 2.64-1.18 2.64-2.64zm0 8.686c0-1.46-1.181-2.64-2.64-2.64-1.46 0-2.64 1.18-2.64 2.64 0 1.46 1.18 2.64 2.64 2.64 1.459 0 2.64-1.18 2.64-2.64z" transform="translate(-541 -1017) translate(452 992) translate(66) translate(23 25) translate(10.423 5.906)"/>
                            <path fill="#57ADEA" d="M72.163 28.872L72.163 50.604 50.431 50.604z" transform="translate(-541 -1017) translate(452 992) translate(66) translate(23 25) translate(10.423 5.906)"/>
                        </g>
                    </g>
                </g>
            </g>
        </g>
    </g>
</svg>
