<svg xmlns="http://www.w3.org/2000/svg" width="82" height="79" viewBox="0 0 82 79">
    <defs>
        <linearGradient id="67tfoumtqa" x1="50.017%" x2="50.017%" y1="92.718%" y2="4.014%">
            <stop offset="0%" stop-color="#4858E4"/>
            <stop offset="100%" stop-color="#528DE8"/>
        </linearGradient>
    </defs>
    <g fill="none" fill-rule="evenodd">
        <g fill-rule="nonzero">
            <g>
                <g>
                    <path fill="#000" d="M30.415 76.08c0 .734-.601 1.335-1.336 1.335H1.419c-.734 0-1.335-.6-1.335-1.336 0-.735.6-1.336 1.336-1.336h27.659c.735 0 1.336.601 1.336 1.336zm49.49-71.82H65.405c-.734 0-1.336.6-1.336 1.335s.602 1.336 1.336 1.336h14.498c.735 0 1.336-.6 1.336-1.336 0-.735-.601-1.336-1.336-1.336zM17.353 16.451h9.587c.735 0 1.336-.601 1.336-1.336 0-.735-.601-1.337-1.336-1.337h-9.587c-.735 0-1.336.602-1.336 1.337s.584 1.336 1.336 1.336zm-15.45 7.933h14.38c.736 0 1.337-.6 1.337-1.336 0-.735-.601-1.336-1.336-1.336H1.905c-.736 0-1.337.601-1.337 1.336 0 .735.584 1.336 1.336 1.336zM61.882 70.3h-2.639v-2.639c0-.735-.601-1.336-1.336-1.336-.735 0-1.336.601-1.336 1.336v2.64h-2.64c-.734 0-1.335.6-1.335 1.335s.601 1.337 1.336 1.337h2.639v2.639c0 .734.601 1.336 1.336 1.336.735 0 1.336-.602 1.336-1.336v-2.64h2.64c.734 0 1.335-.6 1.335-1.336 0-.735-.6-1.336-1.336-1.336zM3.725 6.664h2.622v2.64c0 .734.601 1.335 1.336 1.335.735 0 1.336-.6 1.336-1.336V6.664h2.64c.734 0 1.335-.601 1.335-1.336 0-.735-.6-1.336-1.336-1.336H9.02V1.37C9.02.635 8.418.033 7.683.033c-.735 0-1.336.602-1.336 1.337v2.639H3.725c-.735 0-1.337.6-1.337 1.336 0 .735.585 1.32 1.337 1.32z" transform="translate(-252 -1768) translate(163 1745) translate(89 23)"/>
                    <g>
                        <path fill="#57ADEA" d="M14.598 0.117L14.598 3.758 0.117 3.758 0.117 0.117z" transform="translate(-252 -1768) translate(163 1745) translate(89 23) translate(.334 67.478)"/>
                        <path fill="#4A61E5" d="M70.851 10.422L80.355 0.919 80.355 10.422z" transform="translate(-252 -1768) translate(163 1745) translate(89 23) translate(.334 67.478)"/>
                    </g>
                    <path fill="url(#67tfoumtqa)" d="M43.293 18.59v28.126c0 2.79 1.686 5.345 4.309 6.347 2.388.919 3.958 2.339 5.578 3.809 2.723 2.505 5.846 5.328 12.494 5.328.133 0 12.81 1.536 15.032-17.521-2.055-13.178-10.59-27.96-32.052-30.783-2.84-.367-5.361 1.82-5.361 4.694zm10.756 17.504c-2.906.367-5.378-2.088-4.994-4.994.25-1.988 1.854-3.575 3.825-3.825 2.906-.368 5.378 2.088 4.994 4.994-.25 1.988-1.854 3.574-3.825 3.825zm12.16 7.816c-2.69.351-4.978-1.937-4.627-4.626.233-1.837 1.703-3.307 3.54-3.541 2.69-.35 4.978 1.938 4.627 4.627-.234 1.82-1.704 3.307-3.54 3.54z" transform="translate(-252 -1768) translate(163 1745) translate(89 23)"/>
                    <path fill="#000" d="M65.674 63.536c-7.2 0-10.64-3.157-13.396-5.679l-.016-.017c-2.64-2.405-4.928-4.476-11.007-4.476-6.08 0-8.368 2.071-11.007 4.476-2.773 2.539-6.197 5.696-13.395 5.696-.034 0-3.992-.034-7.9-2.59-3.508-2.287-7.667-7.098-7.667-17.069 0-.117.117-12.493 9.938-21.813.534-.501 1.386-.485 1.887.05.501.534.485 1.386-.05 1.887-8.919 8.452-9.103 19.76-9.103 19.876 0 6.982 2.138 11.942 6.364 14.765 3.207 2.138 6.514 2.205 6.547 2.205 6.147 0 8.92-2.54 11.575-4.978l.017-.016c2.79-2.54 5.695-5.178 12.81-5.178 7.116 0 10.005 2.639 12.811 5.178l.017.016c2.672 2.456 5.428 4.978 11.591 4.978.017 0 3.324-.067 6.531-2.205 4.226-2.806 6.364-7.783 6.364-14.765 0-.067-.117-7.466-4.844-14.748-6.213-9.57-17.137-14.43-32.47-14.43-5.06 0-9.737.55-13.896 1.636-.718.184-1.436-.234-1.637-.952-.183-.718.234-1.437.952-1.637 4.376-1.152 9.287-1.737 14.582-1.737 8.935 0 16.602 1.637 22.782 4.877 4.994 2.622 9.036 6.28 11.992 10.873 5.144 8 5.211 16.018 5.211 16.101 0 9.955-4.176 14.782-7.666 17.07-3.925 2.572-7.884 2.606-7.917 2.606zm0-17.521c-3.424 0-6.197-2.773-6.197-6.197s2.773-6.196 6.197-6.196 6.196 2.772 6.196 6.196-2.79 6.197-6.196 6.197zm0-9.72c-1.938 0-3.525 1.586-3.525 3.523 0 1.938 1.587 3.525 3.525 3.525 1.937 0 3.524-1.587 3.524-3.525 0-1.937-1.587-3.524-3.524-3.524zm-37.848 9.32h-5.679c-.735 0-1.336-.602-1.336-1.337v-4.343H16.47c-.735 0-1.337-.601-1.337-1.336V32.92c0-.735.602-1.336 1.337-1.336h4.342v-4.342c0-.735.601-1.337 1.336-1.337h5.68c.734 0 1.335.602 1.335 1.337v4.342h4.343c.735 0 1.336.601 1.336 1.336v5.68c0 .734-.601 1.335-1.336 1.335h-4.343v4.343c0 .735-.601 1.336-1.336 1.336zm-4.342-2.673h3.006v-4.343c0-.735.601-1.336 1.336-1.336h4.343v-3.006h-4.343c-.735 0-1.336-.602-1.336-1.337v-4.342h-3.006v4.342c0 .735-.602 1.337-1.337 1.337h-4.342v3.006h4.342c.735 0 1.337.601 1.337 1.336v4.343zm29.98-5.061c-3.424 0-6.196-2.773-6.196-6.197s2.772-6.196 6.196-6.196 6.197 2.772 6.197 6.196-2.79 6.197-6.197 6.197zm0-9.72c-1.937 0-3.524 1.586-3.524 3.523 0 1.938 1.587 3.525 3.524 3.525 1.938 0 3.524-1.587 3.524-3.525 0-1.937-1.586-3.524-3.524-3.524z" transform="translate(-252 -1768) translate(163 1745) translate(89 23)"/>
                </g>
            </g>
        </g>
    </g>
</svg>
