<svg xmlns="http://www.w3.org/2000/svg" width="80" height="78" viewBox="0 0 80 78">
    <defs>
        <linearGradient id="sphyih2vfa" x1="0%" x2="98.533%" y1="50%" y2="50%">
            <stop offset="0%" stop-color="#4650E3"/>
            <stop offset="100%" stop-color="#5AB9EB"/>
        </linearGradient>
    </defs>
    <g fill="none" fill-rule="evenodd">
        <g>
            <g>
                <g>
                    <g>
                        <path fill="url(#sphyih2vfa)" d="M78.406 3.3v65.59H25.539v-3.76c0-5.736 5.735-10.382 12.797-10.382 7.524 0 13.646-4.96 13.646-11.083V17.887c0-8.722 8.703-15.785 19.435-15.785h5.513c.83 0 1.476.535 1.476 1.199z" transform="translate(-823 -1015) translate(735 992) translate(66) translate(22 23)"/>
                        <path fill="#000" fill-rule="nonzero" d="M78.35.092H25.54c-.811 0-1.475.664-1.475 1.475V69.02c0 .811.664 1.475 1.475 1.475H78.35c.812 0 1.476-.664 1.476-1.475V1.567c0-.811-.646-1.475-1.476-1.475zm-1.475 67.453h-49.86V3.043h49.86v64.502zM36.677 17.094c0-.812.663-1.476 1.475-1.476h27.586c.81 0 1.475.664 1.475 1.476 0 .811-.664 1.475-1.475 1.475H38.152c-.812 0-1.475-.664-1.475-1.475zm0 11.174c0-.811.663-1.475 1.475-1.475h27.586c.81 0 1.475.664 1.475 1.475s-.664 1.475-1.475 1.475H38.152c-.812 0-1.475-.664-1.475-1.475zm0 11.175c0-.812.663-1.476 1.475-1.476h27.586c.81 0 1.475.664 1.475 1.476 0 .81-.664 1.475-1.475 1.475H38.152c-.812 0-1.475-.664-1.475-1.475zM14.844 58.915V8.943c0-.811.664-1.475 1.475-1.475h4.592c.811 0 1.475.664 1.475 1.475 0 .812-.664 1.475-1.475 1.475h-3.117v48.478c0 .812-.664 1.476-1.475 1.476s-1.475-.646-1.475-1.457zm55.762 14.678v2.803c0 .811-.664 1.475-1.476 1.475H16.32c-.812 0-1.476-.664-1.476-1.475V64.428c0-.811.664-1.475 1.475-1.475s1.475.664 1.475 1.475v10.493h49.861v-1.328c0-.811.664-1.475 1.475-1.475.812 0 1.476.664 1.476 1.475z" transform="translate(-823 -1015) translate(735 992) translate(66) translate(22 23)"/>
                        <path fill="#000" fill-rule="nonzero" d="M1.826 10.308C1.826 7.616 4 5.44 6.694 5.44c.811 0 1.475.664 1.475 1.475S7.505 8.39 6.694 8.39c-1.051 0-1.918.867-1.918 1.918 0 1.05.867 1.918 1.918 1.918.811 0 1.475.663 1.475 1.475 0 .811-.664 1.475-1.475 1.475-2.674 0-4.868-2.194-4.868-4.868zM11.23 60.39h7.929c.811 0 1.475-.664 1.475-1.475s-.664-1.475-1.475-1.475h-7.93c-.81 0-1.474.664-1.474 1.475s.663 1.475 1.475 1.475zm10.713 2.582H1.586c-.812 0-1.475.663-1.475 1.475 0 .811.663 1.475 1.475 1.475h20.357c.812 0 1.475-.664 1.475-1.475 0-.812-.645-1.475-1.475-1.475z" transform="translate(-823 -1015) translate(735 992) translate(66) translate(22 23)"/>
                    </g>
                </g>
            </g>
        </g>
    </g>
</svg>
