<svg xmlns="http://www.w3.org/2000/svg" width="131" height="117" viewBox="0 0 131 117">
    <g fill="none" fill-rule="evenodd">
        <g>
            <g>
                <g>
                    <g>
                        <path fill="#F9F9F9" d="M33.306 114.021c-2.735-.59-35.598-5.908-33.179-45.13C2.547 29.67 5.583 17.874 18.36 13.558 31.136 9.243 62.194-11.177 86.565 8.24c24.371 19.416 50.67 36.83 40.234 67.833-10.437 31.002-12.145 41.343-39.373 39.761-27.229-1.582-41.114.997-54.12-1.812z" transform="translate(-655 -350) translate(165 301) translate(395) translate(95.426 49.006)"/>
                        <path fill="#E3E3E3" d="M20.888 104.656c-1.383-.409-1.891-.9-1.226-1.491 4.626-4.106 25.37-4.163 35.432-4.246 12.656-.104 25.826-.326 37.221.565 4.769.373 18.257 1.803 17.424 3.738-1.199 2.783-6.175 2.86-8.66 3.008-4.654.277-9.337.19-13.999.22-11.923 0-23.846.22-35.765.102-9.74-.096-20.804.714-30.303-1.86-.041-.011-.083-.023-.124-.036z" transform="translate(-655 -350) translate(165 301) translate(395) translate(95.426 49.006)"/>
                        <path fill="#BBDFF5" d="M25.103 102.537L104.045 102.537 104.045 23.785 25.103 23.785z" transform="translate(-655 -350) translate(165 301) translate(395) translate(95.426 49.006)"/>
                        <path fill="#DEF3F9" d="M26.538 101.105L104.045 101.105 104.045 23.785 26.538 23.785z" transform="translate(-655 -350) translate(165 301) translate(395) translate(95.426 49.006)"/>
                        <path fill="#6A79A8" d="M80.297 102.32h-31.29c-.347 0-.485.434-.06.434h31.289c.348 0 .486-.434.061-.434zM103.73 47.724v31.119c0 .313.63.21.63-.054V47.67c0-.313-.63-.21-.63.054zM49.233 24.002h30.429c.348 0 .486-.434.061-.434H49.295c-.348 0-.486.434-.062.434zM25.418 78.598V47.766c0-.313-.63-.211-.63.053v30.833c0 .313.63.21.63-.054z" transform="translate(-655 -350) translate(165 301) translate(395) translate(95.426 49.006)"/>
                        <path fill="#FFF" d="M89.169 90.733h-49.19c-1.676 0-3.035-1.356-3.035-3.03V38.619c0-1.672 1.36-3.028 3.035-3.028h49.19c1.676 0 3.035 1.356 3.035 3.028v49.086c0 1.673-1.36 3.029-3.035 3.029z" transform="translate(-655 -350) translate(165 301) translate(395) translate(95.426 49.006)"/>
                        <path fill="#E3E3E3" d="M84.632 83.171L83.018 83.171 83.018 82.527 83.987 82.527 83.987 81.56 84.632 81.56zM51.048 83.527H48.59v-1h2.46v1zm4.919 0h-2.46v-1h2.46v1zm4.918 0h-2.459v-1h2.46v1zm4.919 0h-2.46v-1h2.46v1zm4.918 0h-2.46v-1h2.46v1zm4.918 0h-2.459v-1h2.46v1zm4.919 0h-2.46v-1h2.46v1zM46.13 83.171L44.516 83.171 44.516 81.56 45.161 81.56 45.161 82.527 46.13 82.527zM45.516 49.668h-1v-2.453h1v2.453zm0 4.907h-1v-2.453h1v2.453zm0 4.906h-1v-2.453h1v2.453zm0 4.907h-1v-2.454h1v2.454zm0 4.906h-1v-2.453h1v2.453zm0 4.907h-1v-2.453h1V74.2zm0 4.906h-1v-2.453h1v2.453zM45.161 44.762L44.516 44.762 44.516 43.151 46.13 43.151 46.13 43.795 45.161 43.795zM51.048 44.15H48.59v-1h2.46v1zm4.919 0h-2.46v-1h2.46v1zm4.918 0h-2.459v-1h2.46v1zm4.919 0h-2.46v-1h2.46v1zm4.918 0h-2.46v-1h2.46v1zm4.918 0h-2.459v-1h2.46v1zm4.919 0h-2.46v-1h2.46v1zM84.632 44.762L83.987 44.762 83.987 43.795 83.018 43.795 83.018 43.151 84.632 43.151zM84.987 49.668h-1v-2.453h1v2.453zm0 4.907h-1V52.12h1v2.454zm0 4.906h-1v-2.453h1v2.453zm0 4.907h-1v-2.454h1v2.454zm0 4.906h-1v-2.453h1v2.453zm0 4.907h-1v-2.454h1v2.454zm0 4.906h-1v-2.453h1v2.453zM64.261 57.685V68.71c0 .271.626.146.626-.072V57.612c0-.271-.626-.146-.626.073z" transform="translate(-655 -350) translate(165 301) translate(395) translate(95.426 49.006)"/>
                        <path fill="#E3E3E3" d="M70.219 62.975H59.167c-.247 0-.658.372-.238.372h11.052c.247 0 .658-.372.238-.372z" transform="translate(-655 -350) translate(165 301) translate(395) translate(95.426 49.006)"/>
                        <path fill="#FFF" d="M89.756 90.32l-50.244.176c-1.26.004-2.285-.807-2.287-1.812l-.113-50.992c-.002-1.005 1.018-1.823 2.279-1.828l50.244-.175c1.26-.004 2.284.807 2.287 1.812l.113 50.992c.002 1.005-1.018 1.824-2.28 1.828z" transform="translate(-655 -350) translate(165 301) translate(395) translate(95.426 49.006)"/>
                        <path fill="#FFEEA7" d="M56.907 49.681c.009 2.954-2.384 5.354-5.343 5.363-2.96.009-5.366-2.378-5.374-5.332-.009-2.953 2.383-5.354 5.342-5.362 2.96-.009 5.366 2.378 5.375 5.331z" transform="translate(-655 -350) translate(165 301) translate(395) translate(95.426 49.006)"/>
                        <path fill="#FFF" d="M89.786 90.13l-5.284.02-12.578.043-15.022.052-12.37.043-3.744.013c-.709.003-1.536.096-2.197-.196-1.13-.5-1.05-1.42-1.051-2.402l-.008-3.48c-.01-4.015-.018-8.03-.027-12.046l-.033-14.909-.03-13.034c-.004-2.14-.044-4.283-.013-6.423.018-1.31 1.233-1.67 2.329-1.674l2.748-.01 11.26-.038 14.834-.052 13.544-.047c2.403-.009 4.806-.023 7.21-.025 1.131-.001 2.224.544 2.251 1.785.018.779.004 1.56.006 2.339l.023 10.638.033 14.65.03 13.924.02 8.461c0 .23.004.46.001.69-.014 1.075-.92 1.64-1.932 1.679-.357.013-.477.48-.053.465 1.214-.045 2.558-.745 2.618-2.091.008-.166 0-.334-.001-.5l-.007-2.985-.026-11.711-.033-15.16-.03-13.514c-.006-2.318.015-4.638-.016-6.955-.034-2.552-3.103-2.18-4.876-2.174l-10.821.038-14.965.052-14.018.049-7.785.027c-1.322.005-2.91.551-2.977 2.097-.026.575.002 1.158.004 1.734l.022 10.12.033 14.788.032 14.357.02 9.019c.002.847-.082 1.655.625 2.298.81.737 1.848.686 2.855.683l8.967-.031 14.48-.051 14.74-.051 9.77-.034 1.39-.005c.359-.001.475-.467.052-.465z" transform="translate(-655 -350) translate(165 301) translate(395) translate(95.426 49.006)"/>
                        <path fill="#F9F9F9" d="M91.92 81.373c-.317-.469-1.126-1.176-1.448-1.64-.25-.483-.526-.877-.823-1.191-1.785-2.532-3.628-5.005-5.528-7.415-.5-.634-1.102-1.313-1.83-1.266-.47.031-.938.32-1.251.72-3.346 4.272-3.987 5.612-3.468 7.926-1.288-1.964-8.664-12.308-11.768-15.849-.567-.646-1.476-.565-1.946.184l-9.22 13.233c-1.17-2.674-2.179-4.95-2.59-5.748-.773-1.504-2.235-2.805-3.643-2.27-.75.286-1.306 1.028-1.822 1.74-2.62 3.604-6.498 8.714-9.117 12.319v6.437c0 1.151.937 2.083 2.09 2.08l50.05-.137c1.277.007 2.32-1.437 2.33-2.71.03-3.351-.015-6.413-.015-6.413z" transform="translate(-655 -350) translate(165 301) translate(395) translate(95.426 49.006)"/>
                        <path fill="#6A79A8" d="M53.037 79.142L61.14 67.3c.989-1.445 1.922-2.955 2.978-4.352.805-1.067 1.553.012 2.106.681.506.612.999 1.234 1.487 1.86 1.22 1.565 2.41 3.154 3.589 4.751 2.036 2.76 4.14 5.515 5.988 8.408.158.247.75.003.57-.28-1.674-2.618-3.571-5.113-5.408-7.618-1.224-1.67-2.46-3.33-3.726-4.97-.55-.71-1.103-1.418-1.67-2.114-.427-.523-.904-1.307-1.548-1.57-1.029-.418-1.708.355-2.222 1.106l-1.685 2.462-5.4 7.893-3.686 5.389c-.226.33.356.444.525.197zM91.727 81.008c-1.257-1.85-2.547-3.679-3.873-5.481-.684-.93-1.378-1.853-2.08-2.768-.627-.817-1.224-1.729-1.97-2.442-1.282-1.226-2.554-.312-3.55.767-1.285 1.39-2.22 3.058-2.86 4.832-.07.195.55.12.623-.082.547-1.52 1.314-2.955 2.343-4.204.59-.717 1.644-2.047 2.642-1.272.663.515 1.155 1.3 1.664 1.956 2.255 2.909 4.413 5.89 6.48 8.934.112.164.718-.038.581-.24zM38.986 80.701c2.659-3.659 5.287-7.342 7.978-10.978.558-.756 1.276-1.725 2.345-1.531.925.167 1.66.995 2.147 1.742 1.046 1.606 1.354 3.575 2.4 5.19.152.233.747-.003.571-.274-1.183-1.826-1.435-4.177-2.888-5.84-1.106-1.263-2.768-1.792-4.129-.589-.795.704-1.376 1.681-1.995 2.532l-2.266 3.12-4.685 6.447c-.232.32.355.411.522.181z" transform="translate(-655 -350) translate(165 301) translate(395) translate(95.426 49.006)"/>
                        <path fill="#6A79A8" d="M89.882 90.162l-5.283.018-12.577.044-15.02.052c-4.122.015-8.245.03-12.368.043l-3.743.014c-.717.002-1.558.096-2.227-.198-1.164-.51-1.127-1.443-1.129-2.46l-.008-3.404-.026-11.956-.033-14.898-.03-13.104c-.004-2.188-.069-4.386-.014-6.574.032-1.264 1.136-1.713 2.238-1.717l2.748-.01c3.753-.012 7.506-.026 11.258-.039l14.832-.051 13.542-.048c2.403-.008 4.806-.032 7.209-.025 1.187.004 2.34.58 2.359 1.889.01.75.003 1.503.005 2.253l.023 10.529.033 14.619.03 13.974.02 8.593c0 .244.007.489.001.732-.022 1.028-.812 1.685-1.84 1.724-.21.007-.668.334-.252.318 1.221-.046 2.665-.683 2.716-2.075.006-.15 0-.3 0-.45l-.007-2.904-.026-11.61-.033-15.14-.03-13.58c-.006-2.37.01-4.739-.016-7.107-.026-2.465-3.07-2.082-4.776-2.076l-10.82.038-14.961.052-14.017.049-7.784.027c-1.325.005-3.018.497-3.076 2.079-.02.545.003 1.095.004 1.641l.022 10 .033 14.749.032 14.402.02 9.149c.002.821-.099 1.621.57 2.253.783.737 1.824.679 2.81.675l8.966-.031 14.477-.05 14.738-.052 9.77-.034 1.388-.005c.212 0 .67-.32.252-.318z" transform="translate(-655 -350) translate(165 301) translate(395) translate(95.426 49.006)"/>
                        <path fill="#EFEFEF" d="M24.385 103.253V79.627s7.07 3.616 13.588 10.119c6.399 6.384 10.095 13.507 10.095 13.507H24.385z" transform="translate(-655 -350) translate(165 301) translate(395) translate(95.426 49.006)"/>
                        <path fill="#FFF" d="M25.82 101.821V80.439c2.217 1.266 7.161 4.327 12.153 9.307 4.286 4.275 7.707 9.427 9.27 12.004l-21.422.071z" transform="translate(-655 -350) translate(165 301) translate(395) translate(95.426 49.006)"/>
                        <path fill="#6A79A8" d="M24.7 103.226V79.601l-.557.2c3.285 1.685 6.368 3.887 9.225 6.204 4.865 3.945 8.99 8.692 12.375 13.95.718 1.117 1.425 2.253 2.039 3.432.105-.117.21-.234.317-.35H24.416c-.348 0-.486.433-.061.433h23.682c.175 0 .416-.161.317-.351-1.736-3.338-3.984-6.476-6.363-9.379-3.93-4.796-8.66-8.883-13.879-12.23-1.132-.727-2.286-1.442-3.485-2.056-.149-.077-.557-.037-.557.2v23.626c0 .313.63.21.63-.054z" transform="translate(-655 -350) translate(165 301) translate(395) translate(95.426 49.006)"/>
                        <path fill="#EFEFEF" d="M104.763 103.253H81.08s3.624-7.052 10.143-13.555c6.399-6.384 13.54-10.07 13.54-10.07v23.625z" transform="translate(-655 -350) translate(165 301) translate(395) translate(95.426 49.006)"/>
                        <path fill="#FFF" d="M104.619 101.821H83.424c1.255-2.275 4.29-7.35 9.225-12.475 4.238-4.4 9.345-7.912 11.9-9.516l.07 21.991z" transform="translate(-655 -350) translate(165 301) translate(395) translate(95.426 49.006)"/>
                        <path fill="#6A79A8" d="M104.966 103.132H82.22c-.287 0-.575-.007-.861 0-.15.003.029.062.043.037.071-.126.136-.256.206-.382 2.703-4.93 6.226-9.525 10.24-13.456 2.726-2.668 5.74-5.046 8.92-7.15 1.37-.906 2.772-1.794 4.233-2.55l-.55.08v23.625c0 .087.624.003.624-.166V79.544c0-.13-.5.055-.549.08-3.296 1.707-6.398 3.913-9.275 6.24-4.856 3.93-8.99 8.668-12.375 13.906-.743 1.15-1.474 2.322-2.102 3.54-.03.059.073.064.103.064h23.683c.126 0 .703-.242.407-.242z" transform="translate(-655 -350) translate(165 301) translate(395) translate(95.426 49.006)"/>
                        <path fill="#EFEFEF" d="M24.385 23.07h23.683s-3.624 7.051-10.143 13.554c-6.399 6.384-13.54 10.07-13.54 10.07V23.07z" transform="translate(-655 -350) translate(165 301) translate(395) translate(95.426 49.006)"/>
                        <path fill="#FFF" d="M25.964 23.07h22.152c-1.312 2.205-4.483 7.127-9.642 12.095-4.43 4.266-9.766 7.672-12.436 9.227l-.074-21.323z" transform="translate(-655 -350) translate(165 301) translate(395) translate(95.426 49.006)"/>
                        <path fill="#6A79A8" d="M24.182 23.19h22.747c.287 0 .575.007.861 0 .15-.003-.029-.062-.043-.037-.071.126-.136.256-.206.383-2.703 4.93-6.226 9.525-10.24 13.455-2.726 2.668-5.74 5.046-8.92 7.15-1.37.907-2.772 1.794-4.233 2.55l.55-.08V22.986c0-.086-.624-.003-.624.167v23.625c0 .13.5-.054.549-.08 3.296-1.706 6.398-3.912 9.275-6.24 4.856-3.93 8.99-8.668 12.375-13.906.743-1.15 1.474-2.321 2.102-3.54.03-.058-.073-.064-.103-.064H24.589c-.126 0-.703.243-.407.243z" transform="translate(-655 -350) translate(165 301) translate(395) translate(95.426 49.006)"/>
                        <path fill="#EFEFEF" d="M104.763 23.045v23.626s-7.07-3.616-13.588-10.119C84.776 30.17 81.08 23.045 81.08 23.045h23.683z" transform="translate(-655 -350) translate(165 301) translate(395) translate(95.426 49.006)"/>
                        <path fill="#FFF" d="M104.763 23.188v22.1c-2.41-1.31-7.785-4.473-13.211-9.62-4.66-4.418-8.379-9.743-10.077-12.406l23.288-.074z" transform="translate(-655 -350) translate(165 301) translate(395) translate(95.426 49.006)"/>
                        <path fill="#6A79A8" d="M104.45 23.128v23.626l.607-.187c-3.284-1.684-6.368-3.886-9.225-6.204-4.874-3.953-9.01-8.7-12.401-13.97-.719-1.116-1.426-2.252-2.04-3.431l-.515.204h23.683c.126 0 .703-.242.407-.242H81.284c-.061 0-.574.092-.516.204 1.736 3.338 3.985 6.476 6.364 9.38 3.925 4.789 8.64 8.868 13.851 12.21 1.133.727 2.286 1.442 3.485 2.057.108.055.606-.026.606-.188V22.962c0-.087-.623-.003-.623.166z" transform="translate(-655 -350) translate(165 301) translate(395) translate(95.426 49.006)"/>
                    </g>
                </g>
            </g>
        </g>
    </g>
</svg>
