<svg xmlns="http://www.w3.org/2000/svg" width="36" height="36" viewBox="0 0 36 36">
    <defs>
        <linearGradient id="spzggjc7ma" x1="0%" x2="98.533%" y1="50%" y2="50%">
            <stop offset="0%" stop-color="#4650E3"/>
            <stop offset="100%" stop-color="#5AB9EB"/>
        </linearGradient>
    </defs>
    <g fill="none" fill-rule="evenodd">
        <g fill="url(#spzggjc7ma)" transform="translate(-165 -4110)">
            <g>
                <g>
                    <g>
                        <path d="M18 0C8.044 0 0 8.044 0 18s8.044 18 18 18 18-8.044 18-18S27.956 0 18 0zm4.781 10.969h-1.8c-.787 0-1.294.394-1.294 1.181-.056.619 0 1.294 0 1.912 0 .226.113.226.282.226h2.7c.281 0 .337.056.337.337-.112 1.069-.225 2.137-.281 3.15 0 .225-.113.281-.338.281H20.25c-.506 0-.45-.056-.45.45v9.9c0 .338-.113.45-.45.45h-3.713c-.337 0-.393-.112-.393-.394v-5.006-5.062c0-.281-.056-.394-.338-.338h-1.575c-.225 0-.281-.056-.281-.281v-3.15c0-.225.056-.281.281-.281h1.632c.337 0 .393-.113.393-.394v-2.419c0-.956.281-1.912.844-2.7.731-1.012 1.8-1.462 2.981-1.518 1.238-.057 2.475 0 3.713-.057.169 0 .225.056.225.225v3.207c-.113.224-.169.28-.338.28z" transform="translate(0 3892) translate(165 169) translate(0 49)"/>
                    </g>
                </g>
            </g>
        </g>
    </g>
</svg>
