<svg xmlns="http://www.w3.org/2000/svg" width="208" height="207" viewBox="0 0 208 207">
    <g fill="none" fill-rule="evenodd">
        <g>
            <g>
                <path fill="#C6DEEE" d="M50 83.333c-9.206 0-16.667-7.464-16.667-16.666V33.333c0-9.205-7.46-16.666-16.666-16.666S0 24.127 0 33.333V100c0 9.203 7.461 16.667 16.667 16.667 9.205 0 16.666 7.46 16.666 16.666v33.334c0 9.202 7.461 16.666 16.667 16.666 9.206 0 16.667-7.464 16.667-16.666 0-9.206 7.46-16.667 16.666-16.667S100 142.536 100 133.333V66.667C100 57.46 92.539 50 83.333 50c-9.205 0-16.666 7.461-16.666 16.667 0 9.202-7.461 16.666-16.667 16.666z" transform="translate(93 -750) rotate(45 -891.022 424.882)"/>
                <path fill="#2A3142" fill-rule="nonzero" d="M16.667-2.778c-10.74 0-19.445 8.705-19.445 19.445v66.666c0 10.63 8.533 19.27 19.123 19.442l.322.003c7.671 0 13.889 6.217 13.889 13.889V150c0 10.738 8.705 19.444 19.444 19.444 10.631 0 19.27-8.533 19.442-19.122l.002-.322c0-7.595 6.094-13.764 13.66-13.887l.23-.002c10.738 0 19.444-8.707 19.444-19.444V50c0-10.74-8.705-19.444-19.445-19.444-10.632 0-19.27 8.531-19.442 19.122L63.89 50c0 7.67-6.219 13.889-13.889 13.889-7.67 0-13.889-6.22-13.889-13.889V16.667c0-10.74-8.705-19.445-19.444-19.445zm0 5.556c7.671 0 13.889 6.217 13.889 13.889V50c0 10.738 8.705 19.444 19.444 19.444 10.631 0 19.27-8.533 19.442-19.122l.002-.322c0-7.671 6.218-13.889 13.89-13.889 7.67 0 13.888 6.218 13.888 13.889v66.667c0 7.593-6.095 13.764-13.659 13.887l-.23.002c-10.632 0-19.27 8.531-19.442 19.122l-.002.322c0 7.67-6.219 13.889-13.889 13.889-7.67 0-13.889-6.22-13.889-13.889v-33.333c0-10.633-8.531-19.27-19.123-19.442l-.321-.003c-7.67 0-13.89-6.219-13.89-13.889V16.667c0-7.672 6.218-13.89 13.89-13.89z" transform="translate(93 -750) rotate(45 -891.022 424.882)"/>
            </g>
        </g>
    </g>
</svg>
