<svg xmlns="http://www.w3.org/2000/svg" width="156" height="158" viewBox="0 0 156 158">
    <g fill="none" fill-rule="evenodd">
        <g>
            <g>
                <path fill="#CCE4F4" d="M90.257 0.038L19.258 34.447 14 112.446 79.742 156.038 150.742 121.631 156 43.631z" transform="translate(-1275 -749) translate(1275 749.962)"/>
                <path fill="#2A3142" fill-rule="nonzero" d="M68.974 1.178L.535 40.12c-.713.406-.713 1.43 0 1.836l68.439 38.943c.326.186.727.186 1.053 0l68.438-38.943c.713-.406.713-1.43 0-1.836L70.027 1.178c-.326-.186-.727-.186-1.053 0zm.526 2.136l66.298 37.724L69.5 78.763 3.202 41.038 69.5 3.314z" transform="translate(-1275 -749) translate(1275 749.962)"/>
            </g>
        </g>
    </g>
</svg>
