<svg xmlns="http://www.w3.org/2000/svg" width="84" height="78" viewBox="0 0 84 78">
    <defs>
        <linearGradient id="d2atpd6nwa" x1="50.017%" x2="50.017%" y1="92.718%" y2="4.014%">
            <stop offset="0%" stop-color="#4858E4"/>
            <stop offset="100%" stop-color="#528DE8"/>
        </linearGradient>
    </defs>
    <g fill="none" fill-rule="evenodd">
        <g fill-rule="nonzero">
            <g>
                <g>
                    <g>
                        <path fill="url(#d2atpd6nwa)" d="M69.403 18.805c-.899 2.458 1.848 7.97 1.475 11.072-.373 3.103-7.223 8.7-9.156 9.445-1.933.746-4.392-1.305-4.392-1.305l-2.323 1.186v18.873c0 4.154-.865 6.46-1.56 8.309-.509 1.39-.933 2.475-.933 4.086v3.714H38.05v-4.24h4.443c1.645 0 3.018-1.237 3.17-2.882l1.51-15.16V30.726c0-1.085 1.34-1.61 2.069-.797.491.56.814 1.34.814 2.357 0-1.034.983-1.695 2.12-1.695.949 0 1.593.254 2 .729l.916-3.544c.695-2.662 2.051-5.104 3.968-7.088l6.392-6.63c2.018-2.086 5.392-2.035 7.325.136l.034.034c.95 1.085-2.51 2.12-3.408 4.578z" transform="translate(-1104 -1768) translate(1018 1745) translate(66) translate(20 23)"/>
                        <path fill="#57ADEA" d="M81.12 59.043v7.545h-7.529v-7.545h7.529zm-7.529 18.89h7.546v-7.546h-7.546v7.545zm-11.598 0h7.546v-7.546h-7.546v7.545z" transform="translate(-1104 -1768) translate(1018 1745) translate(66) translate(20 23)"/>
                        <path fill="#000" d="M83.731 42.968c0 .746-.61 1.356-1.356 1.356h-.662v.662c0 .746-.61 1.356-1.356 1.356-.746 0-1.357-.61-1.357-1.356v-.662h-.66c-.747 0-1.357-.61-1.357-1.356 0-.746.61-1.357 1.356-1.357H79v-.661c0-.746.61-1.357 1.357-1.357.746 0 1.356.61 1.356 1.357v.661h.662c.746 0 1.356.594 1.356 1.357zM64.147 53.362c.746 0 1.356-.61 1.356-1.356 0-.746-.61-1.357-1.356-1.357-2.476 0-4.477 2.001-4.477 4.477 0 2.475 2 4.476 4.477 4.476.746 0 1.356-.61 1.356-1.356 0-.746-.61-1.357-1.356-1.357-.967 0-1.764-.797-1.764-1.763 0-.967.797-1.764 1.764-1.764zM24.892 66.03h-7.291c-.746 0-1.357.61-1.357 1.356 0 .746.61 1.357 1.357 1.357h7.291c.746 0 1.357-.61 1.357-1.357 0-.746-.61-1.356-1.357-1.356zm-3.645 5.087H8.733c-.746 0-1.357.61-1.357 1.356 0 .746.61 1.357 1.357 1.357h12.514c.746 0 1.356-.61 1.356-1.357 0-.746-.61-1.356-1.356-1.356zM10.58 59.619c0 .61.492 1.102 1.102 1.102h5.952c.61 0 1.102-.491 1.102-1.102 0-.61-.492-1.102-1.102-1.102h-5.952c-.61 0-1.102.492-1.102 1.102zM33.15 5.36h-.661v-.662c0-.746-.61-1.357-1.357-1.357-.746 0-1.356.61-1.356 1.357v.661h-.662c-.746 0-1.356.61-1.356 1.357 0 .746.61 1.356 1.356 1.356h.662v.662c0 .746.61 1.356 1.356 1.356.746 0 1.357-.61 1.357-1.356V8.07h.661c.746 0 1.357-.61 1.357-1.356 0-.746-.61-1.357-1.357-1.357zM7.376 48.918c0 .747.61 1.357 1.357 1.357.746 0 1.356-.61 1.356-1.356v-.662h.661c.747 0 1.357-.61 1.357-1.356 0-.746-.61-1.357-1.357-1.357h-.66v-.661c0-.746-.611-1.357-1.357-1.357s-1.357.61-1.357 1.357v.661h-.661c-.746 0-1.357.61-1.357 1.357 0 .746.61 1.356 1.357 1.356h.661v.662zM82.41 3.223c.712-.712.712-1.865 0-2.578-.712-.712-1.866-.712-2.578 0-.712.713-.712 1.866 0 2.578.712.712 1.866.712 2.578 0z" transform="translate(-1104 -1768) translate(1018 1745) translate(66) translate(20 23)"/>
                        <path fill="#000" d="M74.066 16.16c.526-.526.526-1.39 0-1.917l-3.56-3.56c-.526-.526-1.391-.526-1.917 0-.526.525-.526 1.39 0 1.916L71.2 15.21l-1.661 1.662c-1.713 1.712-1.187 3.747-.34 7.105.238.915.492 1.95.747 3.086.542 2.56.491 2.831-.136 3.459-1.034 1.034-1.967 2.018-2.883 2.95-2.492 2.578-5.053 5.257-6.223 5.257-.067 0-.186 0-.373-.187-.339-.339-.797-.458-1.22-.373l6.155-6.155c.525-.526.525-1.39 0-1.916-.526-.526-1.39-.526-1.916 0l-6.936 6.935v-1.289c0-2.747 0-6.511-4.188-6.511-.543 0-1.068.102-1.543.288-.034-.068-.085-.118-.136-.186l.051-.051c.526-.526.526-1.39 0-1.916-.525-.526-1.39-.526-1.916 0l-.356.356c-1.068-.356-2.221-.322-3.222.05-.034-.05-.067-.101-.101-.169l1.509-1.509c.525-.526.525-1.39 0-1.916-.526-.526-1.39-.526-1.916 0l-1.764 1.763c-.475-.152-1.034-.254-1.679-.254-.457 0-.898.051-1.305.17L50.446 15.26c2.764-2.764 4.781-3.68 6.579-4.51 1.407-.645 2.628-1.204 3.934-2.51l2.628-2.628c.526-.526.526-1.39 0-1.916s-1.39-.526-1.916 0l-2.662 2.662c-.95.95-1.832 1.356-3.137 1.95-1.798.814-4.256 1.95-7.376 5.053L37.71 24.146c.373-.543.56-1.153.543-1.797-.017-2.306-2.442-4.63-6.087-8.156-.933-.9-1.9-1.832-2.917-2.85-1.763-1.763-3.51-1.39-5.935-.864-1.187.254-2.255.526-3.188.763-3.272.831-3.984.899-4.51.373l-2.645-2.611c-.526-.526-1.39-.526-1.916 0l-1.747 1.73c-.526.525-.526 1.39 0 1.916.526.525 1.39.525 1.916 0l.78-.78 1.662 1.661c1.713 1.713 3.73 1.187 7.105.34.915-.238 1.95-.492 3.086-.747 2.56-.542 2.832-.491 3.459.136 1.034 1.034 2.018 1.967 2.95 2.883 2.578 2.492 5.257 5.053 5.257 6.223 0 .067 0 .186-.187.373-.339.339-.457.797-.373 1.22l-6.138-6.12c-.526-.526-1.39-.526-1.916 0-.526.525-.526 1.39 0 1.915l7.919 7.919c-.577.153-1.51.526-2.256 1.475l-.593-.593c-.526-.526-1.39-.526-1.916 0-.526.525-.526 1.39 0 1.916l1.407 1.407c-.068.424-.101.882-.101 1.39v3.273l-3.697-3.696c-.526-.526-1.39-.526-1.916 0-.526.525-.526 1.39 0 1.916l5.613 5.612v4.562c-.051-.068-.102-.119-.153-.187l-7.715-7.715c-.526-.526-1.39-.526-1.916 0s-.526 1.39 0 1.916l7.24 7.24c-.763.34-1.255.95-1.577 1.594L12.124 32.658c-2.764-2.764-3.68-4.781-4.51-6.579-.645-1.407-1.204-2.628-2.51-3.934l-2.628-2.628c-.526-.526-1.39-.526-1.916 0s-.526 1.39 0 1.916l2.628 2.628c.95.95 1.373 1.866 1.95 3.137.814 1.798 1.95 4.256 5.053 7.376l15.77 15.77c.152.153.356.271.559.339-.17 1.679-.119 3.798-.085 6.24.017 1.289.051 2.628.051 4.07 0 2.492 1.51 3.476 3.578 4.815 1.017.662 1.967 1.221 2.798 1.713 2.9 1.73 3.459 2.187 3.459 2.933v3.714c0 .746.61 1.356 1.356 1.356h5.053c.747 0 1.357-.61 1.357-1.356 0-.746-.61-1.357-1.357-1.357h-3.696v-2.357c0-2.424-1.797-3.493-4.782-5.256-.814-.475-1.73-1.035-2.713-1.662-2.187-1.424-2.357-1.662-2.357-2.543 0-1.459-.034-2.815-.05-4.12-.052-2.578-.085-4.8.118-6.343.136-1.017.373-1.695.678-1.848.272-.017.916-.034 1.425-.05v8.088c0 .746.61 1.356 1.356 1.356.746 0 1.357-.61 1.357-1.356V33.269c0-.458.034-.967.152-1.425.017-.034.017-.067.034-.101.17-.61.492-1.153 1.068-1.374.526-.203 1.086-.102 1.39.034v16.516c0 .746.611 1.356 1.357 1.356s1.357-.61 1.357-1.356V29.827v-.068c.05-.967.933-1.323 1.696-1.323 1.085 0 1.56.322 1.916 1.424v17.042c0 .746.61 1.356 1.356 1.356.746 0 1.357-.61 1.357-1.356V30.47c.474-.288 1.17-.356 1.763-.119.526.204 1.136.661 1.187 1.798v14.769c0 .746.61 1.356 1.357 1.356.746 0 1.356-.61 1.356-1.356V32.387v-.102c0-.034 0-.05.051-.102.102-.101.356-.22.73-.22 1 0 1.474 0 1.474 3.798V58.06c0 3.9-.78 5.986-1.475 7.834-.542 1.458-1 2.696-1 4.544v3.714c0 .746.61 1.356 1.356 1.356.746 0 1.357-.61 1.357-1.356v-3.714c0-1.356.339-2.255.848-3.611.695-1.849 1.644-4.392 1.644-8.784V40.865l1.645-1.645c-.085.424.034.9.373 1.221.662.662 1.458 1 2.323.984 2.306-.017 4.63-2.442 8.156-6.088.899-.932 1.832-1.899 2.849-2.916 1.764-1.764 1.39-3.51.865-5.935-.255-1.187-.526-2.255-.763-3.188-.831-3.272-.899-3.985-.373-4.51l2.594-2.628zm-36.49 10.818c.067.034.135.05.203.068-.068.067-.136.152-.203.22.034-.102.017-.186 0-.288zm-.594-2.069c-.186.238-.271.543-.271.831l-.678-.678c.322.068.66.017.95-.153z" transform="translate(-1104 -1768) translate(1018 1745) translate(66) translate(20 23)"/>
                    </g>
                </g>
            </g>
        </g>
    </g>
</svg>
