<svg xmlns="http://www.w3.org/2000/svg" width="36" height="36" viewBox="0 0 36 36">
    <defs>
        <linearGradient id="u9j0qy51wa" x1="0%" x2="98.533%" y1="50%" y2="50%">
            <stop offset="0%" stop-color="#4650E3"/>
            <stop offset="100%" stop-color="#5AB9EB"/>
        </linearGradient>
        <linearGradient id="ltkk25rgtb" x1="0%" x2="98.533%" y1="50%" y2="50%">
            <stop offset="0%" stop-color="#4650E3"/>
            <stop offset="100%" stop-color="#5AB9EB"/>
        </linearGradient>
    </defs>
    <g fill="none" fill-rule="evenodd">
        <g>
            <g>
                <g>
                    <g>
                        <path fill="url(#u9j0qy51wa)" d="M27.788 6.356c-.338 0-.62.113-.844.338-.281.168-.338.562-.338.843 0 .338.113.62.338.844.45.45 1.35.45 1.8 0 .281-.168.337-.562.337-.9 0-.281-.168-.619-.337-.843-.225-.17-.619-.282-.956-.282z" transform="translate(-250 -4110) translate(0 3892) translate(165 169) translate(85 49)"/>
                        <path fill="url(#ltkk25rgtb)" d="M18.056 11.306c-3.769 0-6.694 3.038-6.694 6.694s2.982 6.694 6.694 6.694c3.656 0 6.694-3.038 6.694-6.694 0-3.713-3.038-6.694-6.694-6.694z" transform="translate(-250 -4110) translate(0 3892) translate(165 169) translate(85 49)"/>
                        <path fill="url(#ltkk25rgtb)" d="M25.369 0H10.63C4.725 0 0 4.725 0 10.631v14.681C0 31.276 4.725 36 10.631 36h14.681C31.276 36 36 31.275 36 25.369V10.63C36 4.725 31.275 0 25.369 0zm-7.313 26.831c-4.894 0-8.831-3.994-8.831-8.831 0-4.838 3.938-8.831 8.831-8.831 4.838 0 8.775 3.993 8.775 8.831 0 4.837-3.937 8.831-8.775 8.831zM31.275 7.594c-.056.9-.394 1.744-1.012 2.362-.62.619-1.463 1.013-2.42 1.013-.9 0-1.743-.338-2.418-1.013-.619-.618-1.012-1.462-1.012-2.418 0-.957.337-1.744 1.012-2.42.619-.618 1.462-1.012 2.419-1.012.9 0 1.8.338 2.418 1.013.563.731 1.013 1.575 1.013 2.475z" transform="translate(-250 -4110) translate(0 3892) translate(165 169) translate(85 49)"/>
                    </g>
                </g>
            </g>
        </g>
    </g>
</svg>
