<svg xmlns="http://www.w3.org/2000/svg" width="80" height="79" viewBox="0 0 80 79">
    <defs>
        <linearGradient id="mawgbod6za" x1="50.017%" x2="50.017%" y1="92.718%" y2="4.014%">
            <stop offset="0%" stop-color="#4858E4"/>
            <stop offset="100%" stop-color="#528DE8"/>
        </linearGradient>
    </defs>
    <g fill="none" fill-rule="evenodd">
        <g fill-rule="nonzero">
            <g>
                <g>
                    <path fill="url(#mawgbod6za)" d="M75.662 30.9c0 4.776-1.904 9.386-5.328 12.827L39.768 74.292c-4.61-4.61-4.61-12.11 0-16.719L59.46 37.881c3.441-3.44 5.328-8.05 5.328-12.827 0-.97-.05-1.905-.25-2.773-.334-2.272-1.102-4.426-2.222-6.33-.668-1.136.468-2.472 1.687-2.005 2.389.92 4.527 2.339 6.314 4.126 2.672 2.672 4.51 6.163 5.077 10.055.218.868.268 1.787.268 2.772z" transform="translate(-681 -1496) translate(593 1473) translate(88 23)"/>
                    <path fill="#000" d="M5.412 28.427c-.2.819-.218 1.754-.218 2.456 0 4.476 1.754 8.685 4.944 11.875L20.51 53.13c.518.518.518 1.37 0 1.888-.267.267-.6.384-.952.384-.334 0-.684-.134-.952-.384L8.234 44.645C4.543 40.971 2.505 36.077 2.505 30.9c0-.835.034-1.937.284-3.023.602-4.075 2.489-7.783 5.445-10.756 3.691-3.691 8.585-5.729 13.763-5.729 5.178 0 10.072 2.038 13.763 5.729l4.927 4.927c.518.518.518 1.37 0 1.887-.518.518-1.37.518-1.887 0l-4.928-4.927c-3.19-3.19-7.399-4.944-11.875-4.944s-8.685 1.754-11.875 4.944c-2.573 2.572-4.193 5.78-4.694 9.303 0 .05-.016.084-.016.117zm71.302-.55c-.601-4.076-2.489-7.784-5.445-10.757-3.691-3.691-8.585-5.729-13.763-5.729-5.178 0-10.071 2.038-13.763 5.729l-1.67 1.67c-.518.518-.518 1.37 0 1.888.518.517 1.37.517 1.888 0l1.67-1.67c3.19-3.19 7.399-4.945 11.875-4.945s8.685 1.754 11.876 4.944c2.572 2.572 4.192 5.78 4.693 9.303 0 .034.017.084.017.117.2.836.217 1.754.217 2.456 0 4.476-1.754 8.685-4.944 11.875l-29.613 29.63-12.46-12.46c-.518-.518-1.37-.518-1.888 0-.517.518-.517 1.37 0 1.887L38.8 75.211c.25.25.584.384.952.384.367 0 .701-.134.952-.384l30.565-30.566c3.691-3.674 5.729-8.568 5.729-13.746 0-.851-.034-1.954-.284-3.023z" transform="translate(-681 -1496) translate(593 1473) translate(88 23)"/>
                    <path fill="#000" d="M54.65 3.608c0 .735-.601 1.336-1.336 1.336-4.476 0-8.685 1.754-11.875 4.944l-1.67 1.67c-.268.267-.602.384-.953.384-.334 0-.685-.133-.952-.384-.518-.518-.518-1.37 0-1.887L39.534 8c3.692-3.692 8.585-5.73 13.763-5.73.752 0 1.353.602 1.353 1.337zM29.112 59.227H1.453c-.735 0-1.336.6-1.336 1.336 0 .735.601 1.336 1.336 1.336h27.66c.734 0 1.335-.601 1.335-1.336 0-.735-.584-1.336-1.336-1.336zm3.407-6.23H13.195c-.735 0-1.336.6-1.336 1.336 0 .735.601 1.336 1.336 1.336h19.324c.735 0 1.337-.601 1.337-1.336 0-.735-.602-1.336-1.337-1.336zM78.401 4.259H63.903c-.735 0-1.336.601-1.336 1.336 0 .735.601 1.336 1.336 1.336h14.498c.735 0 1.336-.6 1.336-1.336 0-.735-.601-1.336-1.336-1.336zM18.089 67.628H8.5c-.734 0-1.336.601-1.336 1.336 0 .735.602 1.336 1.336 1.336h9.588c.735 0 1.336-.601 1.336-1.336 0-.735-.601-1.336-1.336-1.336zm58.875-6.848h-2.639v-2.64c0-.734-.6-1.335-1.336-1.335-.735 0-1.336.601-1.336 1.336v2.639h-2.639c-.735 0-1.336.601-1.336 1.336 0 .735.601 1.336 1.336 1.336h2.64v2.64c0 .734.6 1.335 1.335 1.335s1.336-.6 1.336-1.336v-2.639h2.64c.734 0 1.336-.601 1.336-1.336 0-.735-.602-1.336-1.337-1.336zM2.221 6.664h2.623v2.64c0 .734.601 1.335 1.336 1.335.735 0 1.336-.6 1.336-1.336V6.664h2.639c.735 0 1.336-.601 1.336-1.336 0-.735-.601-1.336-1.336-1.336H7.516V1.37C7.516.635 6.915.033 6.18.033c-.735 0-1.336.602-1.336 1.337v2.639H2.22c-.734 0-1.336.6-1.336 1.336 0 .735.585 1.32 1.336 1.32z" transform="translate(-681 -1496) translate(593 1473) translate(88 23)"/>
                    <g>
                        <path fill="#5084E7" d="M12.794 9.587L12.794 5.946 27.275 5.946 27.275 9.587z" transform="translate(-681 -1496) translate(593 1473) translate(88 23) translate(51.11 68.313)"/>
                        <path fill="#495FE5" d="M0.1 9.587L9.604 0.084 9.604 9.587z" transform="translate(-681 -1496) translate(593 1473) translate(88 23) translate(51.11 68.313)"/>
                    </g>
                </g>
            </g>
        </g>
    </g>
</svg>
