<svg xmlns="http://www.w3.org/2000/svg" width="36" height="36" viewBox="0 0 36 36">
    <defs>
        <linearGradient id="ksfwrq4d4a" x1="0%" x2="98.533%" y1="50%" y2="50%">
            <stop offset="0%" stop-color="#4650E3"/>
            <stop offset="100%" stop-color="#5AB9EB"/>
        </linearGradient>
    </defs>
    <g fill="none" fill-rule="evenodd">
        <g fill="url(#ksfwrq4d4a)" transform="translate(-334 -4110)">
            <g>
                <g>
                    <g>
                        <path d="M33.356 0H2.644C1.18 0 0 1.181 0 2.587v30.826C0 34.819 1.181 36 2.644 36H33.3c1.463 0 2.644-1.181 2.644-2.587V2.588C36 1.18 34.819 0 33.356 0zM10.687 30.656H5.345V13.5h5.343v17.156zm-2.7-19.518c-1.687 0-3.093-1.407-3.093-3.094 0-1.688 1.406-3.094 3.093-3.094 1.688 0 3.094 1.406 3.094 3.094 0 1.743-1.35 3.093-3.093 3.093zm22.67 19.518h-5.345v-8.325c0-1.968-.056-4.556-2.756-4.556-2.756 0-3.206 2.194-3.206 4.388v8.493h-5.344V13.5h5.119v2.363h.056c.732-1.35 2.475-2.757 5.063-2.757 5.4 0 6.412 3.544 6.412 8.213v9.337z" transform="translate(0 3892) translate(165 169) translate(169 49)"/>
                    </g>
                </g>
            </g>
        </g>
    </g>
</svg>
