<svg xmlns="http://www.w3.org/2000/svg" width="80" height="78" viewBox="0 0 80 78">
    <defs>
        <linearGradient id="977rz3mlsa" x1="50.017%" x2="50.017%" y1="92.718%" y2="4.014%">
            <stop offset="0%" stop-color="#4858E4"/>
            <stop offset="100%" stop-color="#528DE8"/>
        </linearGradient>
    </defs>
    <g fill="none" fill-rule="evenodd">
        <g fill-rule="nonzero">
            <g>
                <g>
                    <path fill="url(#977rz3mlsa)" d="M61.18 24.62l-6.446 6.446-3.09 3.09-36.395 36.378.05-.05c.785-.852.418-2.038-.35-2.806l-.017-.017 35.025-35.025 3.09-3.09 6.447-6.447c.618-.618.651-1.403.35-2.087 1.437.434 2.59 2.338 1.337 3.607z" transform="translate(-253 -1496) translate(164.5 1473) translate(88.5 23)"/>
                    <path fill="#000" d="M62.951 22.498c-.35-1.32-1.47-2.438-2.79-2.79-1.118-.3-2.237 0-3.056.82l-5.929 5.929-39.985 39.985c-.034.033-.067.083-.1.117-.552.618-.802 1.453-.719 2.322.084.851.485 1.653 1.12 2.304.75.752 1.72 1.136 2.638 1.136.735 0 1.437-.25 1.988-.735l.1-.1 36.394-36.394c.518-.518.518-1.37 0-1.888-.517-.517-1.37-.517-1.887 0l-34.24 34.24c-.083-.134-.184-.267-.284-.384-.033-.033-.067-.067-.1-.117-.033-.033-.05-.067-.083-.083-.034-.034-.067-.067-.1-.117l-.134-.134c-.017-.017-.034-.017-.034-.033-.05-.034-.083-.067-.133-.117-.117-.1-.25-.2-.384-.284l37.83-37.831c.117-.117.25-.184.468-.117.4.1.802.518.902.902.067.234 0 .35-.117.468l-.501.5c-.518.518-.518 1.37 0 1.888.518.518 1.37.518 1.887 0l6.447-6.447c.802-.819 1.103-1.92.802-3.04zM12.994 68.613c0-.067-.016-.217.067-.284.05-.05.15-.066.217-.066h.067c.2.016.401.116.585.267l.05.05.033.033c.384.384.401.852.284.969-.117.117-.584.1-.969-.284-.183-.2-.3-.45-.334-.685zm47.251-44.962l-3.708 3.707c-.317-.5-.751-.935-1.252-1.252l3.708-3.708c.117-.117.25-.184.467-.117.401.1.802.518.902.902.067.234 0 .35-.117.468zM46.75 18.924c.284-.685 1.069-1.002 1.754-.718l3.123 1.286c.685.284 1.002 1.069.718 1.753-.217.518-.718.819-1.236.819-.167 0-.35-.034-.518-.1l-3.123-1.286c-.685-.301-1.002-1.086-.718-1.754zm6.08-5.83c-.284-.684.033-1.47.718-1.753.685-.284 1.47.033 1.753.718l1.287 3.123c.284.685-.034 1.47-.719 1.754-.167.067-.334.1-.517.1-.518 0-1.02-.317-1.236-.818l-1.286-3.123zm7.866 1.554l1.286-3.123c.284-.685 1.07-1.003 1.754-.719.685.284 1.002 1.07.718 1.754l-1.286 3.124c-.217.517-.718.818-1.236.818-.167 0-.35-.033-.517-.1-.685-.3-1.003-1.07-.719-1.754zm5.061 18.974c.284.685-.033 1.47-.718 1.754-.167.066-.334.1-.518.1-.518 0-1.019-.318-1.236-.819L62 31.534c-.284-.685.034-1.47.718-1.754.685-.284 1.47.034 1.754.719l1.286 3.123zm6.08-5.83c-.217.518-.718.82-1.236.82-.167 0-.35-.034-.518-.101l-3.107-1.286c-.684-.284-1.002-1.07-.718-1.754.284-.685 1.07-1.002 1.754-.718l3.123 1.286c.668.284.986 1.069.702 1.754zm-4.877-7.031c-.518 0-1.02-.317-1.236-.818-.284-.685.033-1.47.718-1.754l3.123-1.286c.685-.284 1.47.033 1.754.718.284.685-.033 1.47-.718 1.754l-3.123 1.286c-.184.067-.351.1-.518.1zM22.715 37.68c0 .735-.601 1.337-1.336 1.337-3.39 0-6.146-2.756-6.146-6.147 0-.735.6-1.336 1.336-1.336.735 0 1.336.601 1.336 1.336 0 1.904 1.553 3.474 3.474 3.474.735 0 1.336.602 1.336 1.337zm-9.687-6.146c-.735 0-1.336.601-1.336 1.336 0 1.904-1.554 3.474-3.474 3.474-.735 0-1.337.602-1.337 1.337 0 .734.602 1.336 1.337 1.336 3.39 0 6.146-2.756 6.146-6.147 0-.735-.601-1.336-1.336-1.336zm17.988-11.057H21.43c-.735 0-1.336.601-1.336 1.336 0 .735.601 1.336 1.336 1.336h9.587c.735 0 1.336-.6 1.336-1.336 0-.735-.6-1.336-1.336-1.336zM8.234 39.885c-.735 0-1.336.602-1.336 1.336 0 .735.601 1.337 1.336 1.337 1.904 0 3.474 1.553 3.474 3.474 0 .735.602 1.336 1.337 1.336.734 0 1.336-.601 1.336-1.336-.017-3.39-2.773-6.147-6.147-6.147zm67.36 32.67c.77.334 1.654-.017 1.988-.768.334-.769-.016-1.654-.768-1.988-.768-.334-1.653.017-1.987.785-.351.752 0 1.637.768 1.971zM9.638 18.373h14.498c.735 0 1.336-.602 1.336-1.337S24.87 15.7 24.135 15.7H9.637c-.735 0-1.336.601-1.336 1.336 0 .735.601 1.337 1.336 1.337zM21.38 39.885c-3.39 0-6.146 2.756-6.146 6.147 0 .735.6 1.336 1.336 1.336.735 0 1.336-.601 1.336-1.336 0-1.904 1.553-3.474 3.474-3.474.735 0 1.336-.602 1.336-1.337 0-.734-.601-1.336-1.336-1.336zm51.493 12.243H58.375c-.735 0-1.336.601-1.336 1.336 0 .735.6 1.336 1.336 1.336h14.497c.735 0 1.337-.6 1.337-1.336 0-.735-.602-1.336-1.337-1.336zM71.12 74.643c-.819 0-1.504.668-1.504 1.503 0 .835.669 1.503 1.504 1.503s1.503-.668 1.503-1.503c0-.835-.685-1.503-1.503-1.503zm5.077-.017c-.835 0-1.503.685-1.503 1.503 0 .819.685 1.504 1.503 1.504.819 0 1.503-.685 1.503-1.504 0-.818-.668-1.503-1.503-1.503zM49.59 66.158H46.95v-2.639c0-.735-.601-1.336-1.336-1.336-.735 0-1.336.601-1.336 1.336v2.639h-2.639c-.735 0-1.336.601-1.336 1.336 0 .735.601 1.336 1.336 1.336h2.639v2.64c0 .734.601 1.336 1.336 1.336.735 0 1.336-.602 1.336-1.337V68.83h2.64c.734 0 1.335-.6 1.335-1.336 0-.735-.6-1.336-1.336-1.336zm12.828-17.47c0-.736-.602-1.337-1.336-1.337h-9.588c-.735 0-1.336.601-1.336 1.336 0 .735.601 1.337 1.336 1.337h9.588c.734 0 1.336-.585 1.336-1.337zM37.68 6.413h-.652v-.652c0-.735-.601-1.336-1.336-1.336-.735 0-1.336.601-1.336 1.336v.652h-.652c-.735 0-1.336.601-1.336 1.336 0 .735.601 1.336 1.336 1.336h.652v.651c0 .735.601 1.337 1.336 1.337.735 0 1.336-.602 1.336-1.337v-.65h.652c.734 0 1.336-.602 1.336-1.337s-.585-1.336-1.336-1.336z" transform="translate(-253 -1496) translate(164.5 1473) translate(88.5 23)"/>
                    <g>
                        <path fill="#4A61E5" d="M5.929 77.883L0.15 77.883 0.15 72.087 5.946 72.087 5.946 77.883z" transform="translate(-253 -1496) translate(164.5 1473) translate(88.5 23)"/>
                        <path fill="#5082E7" d="M79.086 5.846L73.29 5.846 73.29 0.067 79.086 0.067z" transform="translate(-253 -1496) translate(164.5 1473) translate(88.5 23)"/>
                        <path fill="#528BE8" d="M70.384 5.846L64.588 5.846 64.588 0.067 70.384 0.067z" transform="translate(-253 -1496) translate(164.5 1473) translate(88.5 23)"/>
                    </g>
                </g>
            </g>
        </g>
    </g>
</svg>
