<svg xmlns="http://www.w3.org/2000/svg" width="48" height="45" viewBox="0 0 48 45">
    <defs>
        <linearGradient id="j78q3njvpa" x1="49.985%" x2="49.985%" y1="94.091%" y2="-7.095%">
            <stop offset="0%" stop-color="#4241E1"/>
            <stop offset="100%" stop-color="#56A4EA"/>
        </linearGradient>
    </defs>
    <g fill="none" fill-rule="evenodd">
        <g fill-rule="nonzero">
            <g>
                <g>
                    <path fill="url(#j78q3njvpa)" d="M40.987 38.129c.723.853 1.034 1.948.863 3.022-.281 1.718-1.868 3.013-3.685 3.013H13.864c-1.828 0-3.415-1.295-3.686-3.013-.17-1.064.14-1.757.864-2.6.17-.201.361-.382.562-.543-.863-1.516.241-2.47 1.958-2.47h6.769c.12 0 .25 0 .371-.01 1.215-.08 2.44-.07 3.655.12.462.07.934.111 1.416.111 5.322 0 9.64-4.59 9.64-10.243 0-5.603-4.237-10.162-9.5-10.242v-9.56c0-2.691 2.18-4.87 4.871-4.87h5.503c.331 0 .522.381.321.642l-5.653 7.542c-.11.14-.11.341 0 .482C38.516 19.672 41.9 25.516 41.9 32.375c0 2.008-.692 3.816-1.476 5.212.191.15.392.331.563.542z" transform="translate(-451 -472) translate(451 471) translate(0 1)"/>
                    <path fill="#000" d="M23.765 33.921c0-.442.361-.803.803-.803h1.607v-2.38l.633-.13c1.486-.312 2.37-1.326 2.37-2.702 0-.442.36-.803.803-.803.442 0 .803.361.803.803 0 1.948-1.135 3.475-3.012 4.097v2.722h-3.214c-.442 0-.793-.352-.793-.804zM39.44 38.22l-.552-.422.341-.612c.08-.14.15-.271.221-.412h-8.495c-.442 0-.804.362-.804.804 0 .441.362.803.804.803h8.686c-.03-.02-.05-.05-.08-.07-.04-.02-.08-.05-.12-.09zM26.968 16.278c-.442 0-.803.361-.803.803v3.153l.653.12c.572.111 1.114.352 1.626.724l-1.094 1.094c-.312.312-.312.824 0 1.135.16.16.361.231.572.231.201 0 .412-.08.573-.23l2.269-2.27-.572-.573c-.733-.733-1.547-1.245-2.42-1.526V17.07c0-.432-.362-.793-.804-.793zm-.351 11.89c-.1.05-.352.14-.844.14-.652 0-1.175-.2-1.586-.613l-.573-.572-2.27 2.27c-.31.31-.31.823 0 1.134.161.16.362.231.573.231.201 0 .412-.08.573-.23l1.195-1.196c.602.382 1.315.583 2.098.583 2.42 0 2.611-1.537 2.611-2.009 0-1.285-.823-1.657-2.681-2.008-1.687-.321-2.731-1.396-2.731-2.802 0-1.235.692-2.209 1.867-2.6.422-.141.643-.603.502-1.025-.14-.422-.602-.643-1.024-.502-1.817.623-2.952 2.21-2.952 4.127 0 2.19 1.587 3.907 4.037 4.378.914.171 1.255.312 1.375.372v.06c-.02.16-.06.201-.17.261zm14.711 9.71l-.21-.271c-.061-.07-.121-.13-.182-.201.1-.201.191-.392.282-.593.662-1.486.994-2.982.994-4.448 0-.311-.01-.623-.02-.934 0-.1-.01-.2-.01-.301 0-.06-.01-.11-.01-.171l-.03-.442c-.03-.361-.08-.723-.131-1.074-.01-.05-.01-.09-.02-.14-.03-.192-.06-.382-.1-.583v-.03c-.03-.161-.06-.312-.091-.472l-.03-.141-.09-.412c-.02-.07-.03-.13-.05-.2-.03-.121-.061-.232-.091-.352-.02-.09-.04-.17-.07-.261-.02-.06-.03-.12-.05-.18-.392-1.377-.924-2.772-1.607-4.218-1.476-3.113-3.686-6.598-7.391-11.659-.261-.362-.763-.432-1.125-.17-.361.26-.432.762-.17 1.124 2.68 3.665 4.79 6.768 6.346 9.63 2.089 3.856 3.143 7.27 3.143 10.976 0 1.295-.311 2.62-.934 3.956-.07.15-.14.302-.22.452-.071.14-.141.271-.222.412l-.341.602.552.422c.04.03.08.06.12.1.03.02.05.05.081.07.09.081.17.172.251.262l.13.16c.352.473.553 1.025.583 1.587.01.211 0 .412-.03.623-.1.592-.392 1.114-.813 1.516-.533.512-1.276.824-2.08.824H13.865c-1.035 0-1.969-.523-2.49-1.306-.202-.311-.352-.653-.412-1.034-.03-.17-.04-.342-.03-.522.01-.563.2-1.125.532-1.607.06-.08.12-.17.19-.241.12-.14.251-.261.392-.382.02-.02.04-.03.06-.05l.553-.422-.342-.602c-.07-.12-.13-.241-.19-.362-.01-.03-.03-.06-.04-.09-.051-.1-.101-.19-.141-.291-.01-.03-.02-.05-.04-.08-.181-.382-.332-.764-.462-1.145v-.01c-.131-.382-.231-.774-.312-1.155-.12-.573-.18-1.135-.18-1.697 0-6.708 3.484-12.563 10.794-22.383.322-.422.312-1.015 0-1.447l-5.171-6.898h18.447l-6.859 9.148c-.27.351-.19.853.16 1.125.352.26.854.19 1.126-.161l7.34-9.79c.271-.372.321-.854.11-1.266C36.7.26 36.278.01 35.826.01H15.741c-.462 0-.873.251-1.074.663-.2.412-.16.894.11 1.265l5.473 7.3C12.85 19.23 9.325 25.265 9.325 32.375c0 .663.07 1.325.21 1.998v.02c.131.623.312 1.256.563 1.878v.01c.05.12.09.231.14.352.01.01.01.03.02.04.05.11.101.22.151.341.01.01.01.02.02.04.06.12.12.241.181.372-.06.06-.12.13-.18.2-.081.091-.151.182-.222.282-.592.813-.903 1.787-.883 2.771 0 .211.02.412.05.623.07.422.2.824.392 1.195.743 1.476 2.33 2.49 4.097 2.49h23.809c1.104 0 2.139-.391 2.942-1.054.803-.663 1.366-1.577 1.536-2.63.04-.282.06-.553.05-.834-.02-.944-.32-1.828-.873-2.591z" transform="translate(-451 -472) translate(451 471) translate(0 1)"/>
                    <g>
                        <path fill="#4349E1" d="M0.01 13.888L3.545 13.888 3.545 16.057 0.01 16.057z" transform="translate(-451 -472) translate(451 471) translate(0 1) translate(4.314 4.418)"/>
                        <path fill="#5292E8" d="M.01 9.249h3.535v2.259H.01v-2.26zm0-6.92h7.762V.07H.01v2.26zm0 4.54h7.762v-2.17H.01v2.17z" transform="translate(-451 -472) translate(451 471) translate(0 1) translate(4.314 4.418)"/>
                    </g>
                    <path fill="#000" d="M45.57 24.844c0 .441-.362.803-.803.803h-4.318c-.442 0-.804-.362-.804-.803 0-.442.362-.804.804-.804h4.318c.451 0 .803.362.803.804zm-2.962 2.209h-7.411c-.442 0-.804.361-.804.803 0 .442.362.803.804.803h7.41c.442 0 .804-.361.804-.803 0-.442-.352-.803-.803-.803zm-36.964 9.73H4.057v-1.586c0-.442-.362-.804-.803-.804-.442 0-.804.362-.804.804v1.586H.864c-.442 0-.804.362-.804.804 0 .441.362.803.804.803H2.45v1.587c0 .441.362.803.804.803.441 0 .803-.362.803-.803V38.39h1.587c.441 0 .803-.362.803-.803 0-.442-.362-.804-.803-.804zm41.221-5.643c-.592 0-1.084.482-1.084 1.084 0 .603.482 1.085 1.084 1.085.593 0 1.085-.482 1.085-1.085 0-.602-.492-1.084-1.085-1.084zM38.35 11.287c0-.502.412-.904.904-.904.492 0 .903.412.903.904 0 .492-.411.904-.903.904-.492 0-.904-.402-.904-.904zm3.012 0c0-.502.412-.904.904-.904.492 0 .904.412.904.904 0 .492-.412.904-.904.904-.492 0-.904-.402-.904-.904zm3.013 0c0-.502.412-.904.904-.904.492 0 .903.412.903.904 0 .492-.411.904-.903.904-.492 0-.904-.402-.904-.904z" transform="translate(-451 -472) translate(451 471) translate(0 1)"/>
                </g>
            </g>
        </g>
    </g>
</svg>
