<svg xmlns="http://www.w3.org/2000/svg" width="88" height="78" viewBox="0 0 88 78">
    <defs>
        <linearGradient id="0jt2uuqfna" x1="0%" x2="98.533%" y1="50%" y2="50%">
            <stop offset="0%" stop-color="#4650E3"/>
            <stop offset="100%" stop-color="#5AB9EB"/>
        </linearGradient>
    </defs>
    <g fill="none" fill-rule="evenodd">
        <g>
            <g>
                <g>
                    <g>
                        <path fill="url(#0jt2uuqfna)" d="M78.827 70.91l-.807 4.569H17.668c-1.91 0-3.466-1.556-3.466-3.467 0-1.91 1.556-3.467 3.466-3.467h19.717c5.042 0 9.14-4.097 9.14-9.139V37.11c0-6.638 5.377-11.995 11.995-11.995H75.32v37.581l3.506 8.214z" transform="translate(-1106 -1017) translate(1020 992) translate(66) translate(20 25)"/>
                        <path fill="#000" fill-rule="nonzero" d="M76.129 77.823H16.9c-1.36 0-2.66-.67-3.467-1.773-.788-1.083-1.004-2.502-.61-3.782l2.501-9.671V27.792c0-2.344 1.91-4.274 4.274-4.274h9.199v-3.801c0-9.77 7.958-17.728 17.727-17.728 9.77 0 17.728 7.958 17.728 17.728v5.377c0 .867-.71 1.576-1.576 1.576H19.579c-.61 0-1.123.492-1.123 1.122v33.426H72.23c.866 0 1.576.71 1.576 1.576 0 .867-.71 1.576-1.576 1.576H18.12l-2.245 8.725c0 .04-.02.08-.04.099-.118.335-.059.709.158 1.004.217.296.551.473.906.473h59.229c.354 0 .69-.177.906-.473.217-.295.276-.67.157-1.004-.02-.04-.02-.079-.039-.099l-2.54-9.868c-.02-.079-.04-.157-.04-.236 0-.079-.02-.158-.02-.236V27.792c0-.61-.492-1.122-1.123-1.122h-6.086c-.867 0-1.576-.71-1.576-1.576 0-.867.71-1.576 1.576-1.576h6.086c2.344 0 4.275 1.91 4.275 4.274v34.805l2.501 9.671c.414 1.28.177 2.699-.61 3.782-.808 1.123-2.088 1.773-3.467 1.773zm-44.2-54.305H61.08v-3.801c0-8.037-6.54-14.576-14.575-14.576-8.037 0-14.576 6.54-14.576 14.576v3.801z" transform="translate(-1106 -1017) translate(1020 992) translate(66) translate(20 25)"/>
                        <path fill="#000" fill-rule="nonzero" d="M87.1 43.806c0 .867-.71 1.576-1.576 1.576h-8.47c-.866 0-1.575-.71-1.575-1.576 0-.867.709-1.576 1.576-1.576h8.47c.866 0 1.575.71 1.575 1.576zm-5.81 4.333H66.752c-.867 0-1.576.71-1.576 1.576 0 .867.71 1.576 1.576 1.576h14.536c.867 0 1.576-.71 1.576-1.576 0-.867-.709-1.576-1.576-1.576zm-6.304-34.647h3.112v3.113c0 .866.71 1.575 1.576 1.575.867 0 1.576-.709 1.576-1.575v-3.113h3.112c.867 0 1.576-.709 1.576-1.575 0-.867-.71-1.576-1.576-1.576H81.25V7.229c0-.867-.71-1.576-1.576-1.576-.866 0-1.576.71-1.576 1.576v3.112h-3.112c-.866 0-1.575.709-1.575 1.576 0 .866.709 1.575 1.575 1.575zM8.982.06c-.867 0-1.576.71-1.576 1.576 0 2.245-1.832 4.097-4.097 4.097-.867 0-1.576.709-1.576 1.576 0 .866.71 1.575 1.576 1.575 3.999 0 7.249-3.25 7.249-7.248 0-.867-.71-1.576-1.576-1.576zm9.848 5.673c-2.245 0-4.097-1.832-4.097-4.097 0-.867-.709-1.576-1.575-1.576-.867 0-1.576.71-1.576 1.576 0 3.998 3.25 7.248 7.248 7.248.867 0 1.576-.709 1.576-1.575 0-.867-.709-1.576-1.576-1.576zm0 4.176c-3.998 0-7.248 3.25-7.248 7.248 0 .867.709 1.576 1.576 1.576.866 0 1.575-.71 1.575-1.576 0-2.245 1.832-4.097 4.097-4.097.867 0 1.576-.709 1.576-1.576 0-.866-.709-1.575-1.576-1.575zm-15.52 0c-.868 0-1.577.709-1.577 1.575 0 .867.71 1.576 1.576 1.576 2.246 0 4.097 1.832 4.097 4.097 0 .867.71 1.576 1.576 1.576.866 0 1.576-.71 1.576-1.576 0-3.998-3.25-7.248-7.249-7.248zm2.776 42.486c-.61-.61-1.615-.61-2.225 0l-.552.551-.551-.551c-.611-.61-1.616-.61-2.226 0-.61.61-.61 1.615 0 2.226l.532.532-.532.531c-.61.61-.61 1.615 0 2.226.315.315.709.453 1.123.453.413 0 .807-.157 1.122-.453l.552-.551.551.551c.315.315.71.453 1.123.453.414 0 .808-.157 1.123-.453.61-.61.61-1.615 0-2.226l-.532-.531.532-.532c.571-.61.571-1.596-.04-2.226zm.06-23.124c-1.163 0-2.128.945-2.128 2.127s.946 2.127 2.127 2.127c1.182 0 2.128-.945 2.128-2.127s-.965-2.127-2.128-2.127z" transform="translate(-1106 -1017) translate(1020 992) translate(66) translate(20 25)"/>
                    </g>
                </g>
            </g>
        </g>
    </g>
</svg>
