<svg xmlns="http://www.w3.org/2000/svg" width="48" height="49" viewBox="0 0 48 49">
    <defs>
        <linearGradient id="azeoji9o2a" x1="49.997%" x2="49.997%" y1="102.034%" y2="-4.304%">
            <stop offset="0%" stop-color="#4449E2"/>
            <stop offset="100%" stop-color="#5DC6EC"/>
        </linearGradient>
    </defs>
    <g fill="none" fill-rule="evenodd">
        <g fill-rule="nonzero">
            <g>
                <g>
                    <path fill="#4A65E4" d="M37.4 2.203c0 2.051-1.668 3.719-3.72 3.719-.444 0-.808-.364-.808-.809 0-.444.364-.808.809-.808 1.152 0 2.102-.94 2.102-2.102 0-.445.364-.808.808-.808.445 0 .809.363.809.808zm4.244 2.102c-1.152 0-2.102-.94-2.102-2.102 0-.445-.364-.808-.809-.808-.444 0-.808.363-.808.808 0 2.051 1.667 3.719 3.719 3.719.444 0 .808-.364.808-.809 0-.444-.364-.808-.808-.808zm0 2.142c-2.052 0-3.719 1.668-3.719 3.719 0 .445.364.808.808.808.445 0 .809-.363.809-.808 0-1.152.94-2.102 2.102-2.102.444 0 .808-.364.808-.808 0-.445-.364-.809-.808-.809zm-7.963 0c-.445 0-.809.364-.809.809 0 .444.364.808.809.808 1.152 0 2.102.94 2.102 2.102 0 .445.364.808.808.808.445 0 .809-.363.809-.808 0-2.051-1.668-3.719-3.72-3.719zm13.49 13.774c-.444 0-.808.363-.808.808v4.345c0 .445.364.809.808.809.445 0 .809-.364.809-.809V21.03c0-.445-.364-.808-.809-.808zM1.87 10.72c.445 0 .809-.363.809-.808V2.456c0-.445-.364-.809-.809-.809-.444 0-.808.364-.808.809v7.457c0 .445.364.809.808.809zm3.76 33.985H4.032v-1.597c0-.445-.364-.808-.808-.808-.445 0-.809.363-.809.808v1.597H.82c-.445 0-.809.363-.809.808 0 .445.364.809.809.809h1.596v1.596c0 .445.364.809.809.809.444 0 .808-.364.808-.809v-1.596h1.597c.444 0 .808-.364.808-.809 0-.445-.364-.808-.808-.808zM43.847 3.133v.394c0 .444.364.808.808.808.445 0 .809-.364.809-.808v-.394h.394c.444 0 .808-.364.808-.809 0-.444-.364-.808-.808-.808h-.394v-.394c0-.445-.364-.809-.809-.809-.444 0-.808.364-.808.809v.394h-.394c-.445 0-.809.364-.809.808 0 .445.364.809.809.809h.394zM2.102 19.3c.596 0 1.091-.485 1.091-1.091 0-.607-.485-1.092-1.091-1.092-.596 0-1.091.485-1.091 1.092 0 .606.485 1.091 1.09 1.091zm43.483 22.343c.444 0 .808-.364.808-.809 0-.444-.364-.808-.808-.808-1.476 0-2.668 1.192-2.668 2.668 0 1.475 1.192 2.668 2.668 2.668.444 0 .808-.364.808-.809 0-.445-.364-.808-.808-.808-.576 0-1.051-.475-1.051-1.051s.475-1.051 1.05-1.051z" transform="translate(-165 -567) translate(165 567)"/>
                    <path fill="#59B5EA" d="M13.47 0.03L13.47 2.233 7.72 2.233 7.72 0.03z" transform="translate(-165 -567) translate(165 567)"/>
                    <path fill="url(#azeoji9o2a)" d="M22.747 22.757c-.92.647-1.779 1.374-2.496 2.163v-3.588c.02 0 .03.01.06.01.718.172 1.567.728 2.436 1.415zm8.246 1.102c.222-.667.242-1.193.04-1.365-.384-.363-2.01-.394-4.365.647 1.273 1.112 2.759 2.304 3.436 2.112.303-.08.626-.596.889-1.394zm6.174 19.776V33.428l-9.863 10.5 9.863-.293zM20.251 5.558v13.49c.182.01.364.04.546.091 1.354.283 2.698 1.264 4.011 2.385.304-.161.617-.303.92-.444 1.445-.637 4.992-1.94 6.841-.263.637.576 1.263 1.698.576 3.749-.535 1.617-1.334 2.567-2.445 2.87-1.98.535-4.002-1.243-6.144-3.143 0 0 0-.01-.01-.01-2.345 1.516-4.285 3.648-4.285 5.69v11.56c.475-1.132 1.152-1.96 1.88-2.688l15.036-14.41v-7.731H28.72V5.558h-8.468z" transform="translate(-165 -567) translate(165 567)"/>
                    <path fill="#000" d="M26.142 23.757c1.9 1.658 2.971 2.325 3.79 2.325.131 0 .263-.02.384-.05.586-.163 1.081-.81 1.445-1.92.343-1.052.283-1.79-.182-2.214-.798-.727-2.9-.525-5.235.505-.252.112-.434.344-.475.617-.04.273.071.556.273.737zm4.214-.666c-.02.12-.05.293-.121.505-.152.455-.293.717-.384.839-.202-.061-.647-.283-1.597-1.031 1.071-.324 1.769-.344 2.102-.313zm13.764-1.425c-.758-.768-1.85-1.203-2.981-1.203-1.132 0-2.214.435-2.982 1.203L21.565 38.269c-.86.859-1.89 3.021-2.506 4.85H9.064V6.174h18.473c.121 0 .252.01.374.02v10.51c0 .445.364.808.808.808h9.024c.303 0 .586-.171.718-.444.141-.273.11-.596-.071-.85-.283-.373-6.912-9.286-7.529-10.074-.474-.606-1.101-1.061-1.808-1.324-.04-.02-.081-.03-.122-.04-.444-.152-.91-.233-1.394-.233H8.256c-.445 0-.808.364-.808.809v38.561c0 .445.363.809.808.809h10.54V46.18c0 .445.364.808.808.808h1.132c3.021 0 4.81-1.04 6.033-2.081.08-.04.151-.091.212-.152l.04-.04h10.732c.445 0 .809-.364.809-.809V32.852c0-.11-.02-.212-.06-.313-.041-.091-.102-.182-.173-.263-.08-.08-.172-.141-.273-.182-.09-.03-.181-.05-.283-.06h-.04c-.101 0-.202.02-.293.06-.09.04-.182.101-.263.172L26.193 43.271c-.03.02-.06.04-.081.07-1.122 1.062-2.547 2.052-5.376 2.052h-.323v-.324c0-.333.01-.656.04-.98.606-1.99 1.688-4.092 2.254-4.668l16.602-16.613c.465-.465 1.132-.728 1.83-.728.707 0 1.374.263 1.839.728.485.485.758 1.141.758 1.829 0 .697-.273 1.344-.758 1.829l-4.022 4.022c-.313.313-.313.828 0 1.141.313.314.828.314 1.142 0l4.022-4.021c.798-.799 1.232-1.85 1.232-2.981 0-1.112-.434-2.163-1.232-2.961zm-7.994-5.77h-6.598V7.074c.02.02.04.05.06.07.455.597 4.618 6.175 6.538 8.752zm.809 18.917v8.306h-8.307l8.307-8.306zm-19.756-4.83c0 2.546-.97 3.627-3.244 3.627-.444 0-.808.364-.808.809v2.263c0 .445.364.809.808.809 4.396 0 7.134-2.88 7.134-7.519 0-1.425 1.294-3.183 3.416-4.668 2.142 1.88 4.194 3.516 6.427 2.91 1.395-.374 2.385-1.486 3.011-3.395.86-2.598-.141-4.002-.808-4.608-2.203-2.001-6.124-.576-7.71.12-.162.072-.314.142-.475.223-1.183-.96-2.537-1.91-3.962-2.213-1.96-.424-3.728-.101-4.992.92-1.111.899-1.728 2.243-1.728 3.79 0 .444.364.808.809.808h2.263c.445 0 .809-.364.809-.809 0-.242.05-.576.283-.768.323-.253.97-.313 1.728-.141.323.07.737.283 1.253.626-2.688 2.142-4.214 4.73-4.214 7.215zm6.033-6.559c.212-.141.333-.384.343-.637.01-.252-.1-.495-.303-.656-1.142-.91-2.02-1.405-2.769-1.567-1.273-.273-2.374-.11-3.092.465-.374.303-.636.718-.778 1.213h-.667c.152-.698.505-1.294 1.04-1.718.88-.708 2.163-.92 3.639-.596 1.243.272 2.556 1.273 3.668 2.213.253.212.596.252.89.1.282-.15.575-.282.868-.414 1.01-.444 4.426-1.798 5.973-.404.677.606.798 1.587.363 2.9-.444 1.354-1.07 2.122-1.9 2.345-1.556.424-3.425-1.223-5.396-2.971l-.01-.01-.02-.02c-.273-.223-.657-.243-.95-.051-2.92 1.88-4.658 4.254-4.658 6.366 0 3.446-1.698 5.548-4.71 5.861v-.656c2.001-.223 4.053-1.385 4.053-5.205 0-2.213 1.617-4.598 4.416-6.558z" transform="translate(-165 -567) translate(165 567)"/>
                </g>
            </g>
        </g>
    </g>
</svg>
