<svg xmlns="http://www.w3.org/2000/svg" width="158" height="180" viewBox="0 0 158 180">
    <g fill="none" fill-rule="evenodd">
        <g>
            <g>
                <path fill="#FEE7E0" d="M153 104c0 41.974-34.025 76-76 76-41.971 0-76-34.026-76-76s34.029-76 76-76c41.975 0 76 34.026 76 76z" transform="translate(-515 -2611) translate(515 2611)"/>
                <path fill="#2A3142" fill-rule="nonzero" d="M79 0C35.369 0 0 35.37 0 79s35.369 79 79 79 79-35.37 79-79S122.631 0 79 0zm0 6.627c39.97 0 72.373 32.402 72.373 72.373 0 39.97-32.402 72.373-72.373 72.373-39.97 0-72.373-32.402-72.373-72.373C6.627 39.03 39.03 6.627 79 6.627z" transform="translate(-515 -2611) translate(515 2611)"/>
            </g>
        </g>
    </g>
</svg>
