<svg xmlns="http://www.w3.org/2000/svg" width="36" height="30" viewBox="0 0 36 30">
    <defs>
        <linearGradient id="o20k6s8bna" x1="0%" x2="98.533%" y1="50%" y2="50%">
            <stop offset="0%" stop-color="#4650E3"/>
            <stop offset="100%" stop-color="#5AB9EB"/>
        </linearGradient>
    </defs>
    <g fill="none" fill-rule="evenodd">
        <g fill="url(#o20k6s8bna)" transform="translate(-418 -4113)">
            <g>
                <g>
                    <g>
                        <path d="M11.306 29.306c13.613 0 21.038-11.25 21.038-21.037 0-.282 0-.619-.056-.957 1.462-1.068 2.7-2.362 3.656-3.825-1.35.62-2.757 1.013-4.275 1.182 1.518-.9 2.7-2.363 3.262-4.106-1.462.843-2.981 1.462-4.725 1.8C28.856.9 26.944 0 24.806 0c-4.106 0-7.425 3.319-7.425 7.425 0 .563.056 1.125.169 1.688C11.587 8.775 6.131 5.85 2.475 1.35c-.619 1.125-1.013 2.362-1.013 3.712 0 2.588 1.294 4.838 3.32 6.132-1.238-.057-2.363-.394-3.32-.9v.056c0 3.544 2.532 6.581 5.907 7.256-.619.169-1.294.281-1.913.281-.506 0-.956-.056-1.406-.168.956 2.925 3.656 5.062 6.919 5.118-2.531 1.97-5.738 3.15-9.169 3.15-.675.057-1.238 0-1.8-.056 3.206 2.138 7.144 3.375 11.306 3.375" transform="translate(0 3892) translate(165 169) translate(253 52)"/>
                    </g>
                </g>
            </g>
        </g>
    </g>
</svg>
