<svg xmlns="http://www.w3.org/2000/svg" width="80" height="78" viewBox="0 0 80 78">
    <defs>
        <linearGradient id="kth5lhnwpa" x1="0%" x2="98.533%" y1="50%" y2="50%">
            <stop offset="0%" stop-color="#4650E3"/>
            <stop offset="100%" stop-color="#5AB9EB"/>
        </linearGradient>
    </defs>
    <g fill="none" fill-rule="evenodd">
        <g>
            <g>
                <g>
                    <path fill="url(#kth5lhnwpa)" d="M25.627 57.678h-5.746c-1.966 0-3.813-.424-5.491-1.186-1.136-.509-.78-2.204.474-2.204h10.78v3.39h-.017zm34.424-20.102h-.119c-.746-5.152-4.847-9.237-10-9.932 0 0-1.56-13.491-14.983-13.491h-.034c-1.373 0-2.186 1.576-1.423 2.711.864 1.272 1.474 2.56 1.915 3.712.762 2.051 2.305 3.73 4.288 4.661 3.22 1.492 5.644 4.39 6.474 7.916.153.61.662 1.05 1.289 1.101h.017c5.152.492 9.17 4.899 9.067 10.187-.101 5.491-4.695 9.864-10.186 9.864H34.797c-1.882 0-3.39 1.526-3.39 3.39v2.458c0 .915-.746 1.66-1.661 1.66h-1.95c-.525 0-.965.424-.965.967v.966c0 .525.423.966.966.966h7.593v-7H59.88c5.509 0 10.119-4.373 10.187-9.898.101-5.645-4.424-10.238-10.017-10.238z" transform="translate(-254 -1015) translate(166 992) translate(88 23)"/>
                    <path fill="#4F7CE7" fill-rule="nonzero" d="M78.78 10.407L68.458 0.085 78.78 0.085z" transform="translate(-254 -1015) translate(166 992) translate(88 23)"/>
                    <path fill="#000" fill-rule="nonzero" d="M53.847 23.83H39.136c-.746 0-1.356-.61-1.356-1.355 0-.746.61-1.356 1.356-1.356h14.711c.746 0 1.356.61 1.356 1.356 0 .745-.61 1.356-1.356 1.356zm6.73 3.899c0-.746-.61-1.356-1.357-1.356H47.661c-.746 0-1.356.61-1.356 1.356 0 .746.61 1.356 1.356 1.356h11.56c.745 0 1.355-.61 1.355-1.356zm17.982 46.78H63.847c-.745 0-1.355.61-1.355 1.355 0 .746.61 1.356 1.355 1.356H78.56c.746 0 1.356-.61 1.356-1.356 0-.745-.593-1.356-1.356-1.356zm-9-3.407c0-.746-.61-1.356-1.356-1.356h-9.728c-.746 0-1.356.61-1.356 1.356 0 .745.61 1.356 1.356 1.356h9.728c.763 0 1.356-.61 1.356-1.356zM1.61 74.864c-.847 0-1.525.695-1.525 1.526 0 .83.695 1.525 1.525 1.525s1.526-.695 1.526-1.525-.678-1.526-1.526-1.526zm0-2.101c.83 0 1.526-.678 1.526-1.526 0-.847-.678-1.525-1.526-1.525-.847 0-1.525.678-1.525 1.525 0 .848.695 1.526 1.525 1.526zM7.254 75c-.78-.339-1.678.017-2.017.78-.339.762.017 1.678.78 2.017.78.339 1.678-.017 2.017-.78.339-.78-.017-1.678-.78-2.017zM47.95 7c-.746 0-1.356.61-1.356 1.356 0 .746.61 1.356 1.356 1.356 2.475 0 4.475-2 4.475-4.475 0-2.474-2-4.474-4.475-4.474-.746 0-1.356.61-1.356 1.356 0 .745.61 1.356 1.356 1.356.966 0 1.763.796 1.763 1.762S48.932 7 47.949 7zM8.661 20.068H8v-.661c0-.746-.61-1.356-1.356-1.356-.746 0-1.356.61-1.356 1.356v.66h-.66c-.747 0-1.357.611-1.357 1.357 0 .745.61 1.356 1.356 1.356h.661v.66c0 .746.61 1.357 1.356 1.357.746 0 1.356-.61 1.356-1.356v-.661h.661c.746 0 1.356-.61 1.356-1.356 0-.746-.61-1.356-1.356-1.356z" transform="translate(-254 -1015) translate(166 992) translate(88 23)"/>
                    <path fill="#000" fill-rule="nonzero" d="M35.542 65.576h-9.847c-.322 0-.627-.135-.848-.356-.22-.237-.355-.542-.339-.864l.306-21.898-3.56 3.559c-.22.22-.525.356-.847.356-.322 0-.627-.119-.848-.356l-4.067-4.068c-.22-.22-.356-.525-.356-.847 0-.322.118-.627.356-.848l14.406-14.39c.475-.474 1.238-.474 1.695 0l14.39 14.39c.475.475.475 1.238 0 1.695l-4.068 4.068c-.474.475-1.237.475-1.695 0l-3.356-3.356v10.542c0 .661-.542 1.204-1.203 1.204s-1.203-.543-1.203-1.204v-13.44c0-.492.288-.932.745-1.102.441-.186.966-.085 1.305.254l4.56 4.56 2.356-2.356-12.695-12.695-12.712 12.695 2.356 2.356 4.796-4.814c.34-.339.865-.44 1.323-.254.457.186.745.627.728 1.118l-.339 23.644h7.424v-5.491c0-.661.542-1.203 1.203-1.203h24.509c4.881 0 8.847-3.967 8.847-8.848s-3.966-8.847-8.847-8.847h-.119c-.593 0-1.101-.441-1.186-1.034-.661-4.627-4.356-8.288-8.983-8.915-.661-.085-1.119-.695-1.034-1.356.085-.661.695-1.12 1.356-1.034 5.339.728 9.678 4.762 10.847 9.966 5.78.457 10.356 5.305 10.356 11.203 0 6.204-5.05 11.237-11.237 11.237H36.746v5.492c0 .695-.543 1.237-1.204 1.237zM22.34 58.881h-2.475c-8.05 0-14.593-6.542-14.593-14.593 0-8.17 4.865-13.746 13.39-15.457.203-8.797 7.424-15.882 16.271-15.882 6.136 0 11.695 3.407 14.492 8.882.305.593.068 1.322-.526 1.61-.593.305-1.322.067-1.61-.526-2.39-4.678-7.119-7.576-12.356-7.576-7.644 0-13.864 6.22-13.864 13.864v.628c0 .593-.424 1.101-1.017 1.186-7.983 1.271-12.373 5.966-12.373 13.254 0 6.729 5.475 12.187 12.186 12.187h2.475c.661 0 1.203.542 1.203 1.203s-.525 1.22-1.203 1.22z" transform="translate(-254 -1015) translate(166 992) translate(88 23)"/>
                </g>
            </g>
        </g>
    </g>
</svg>
