<?xml version="1.0" standalone="no"?>
<!DOCTYPE svg PUBLIC "-//W3C//DTD SVG 20010904//EN"
 "http://www.w3.org/TR/2001/REC-SVG-20010904/DTD/svg10.dtd">
<svg version="1.0" xmlns="http://www.w3.org/2000/svg"
 width="958.000000pt" height="958.000000pt" viewBox="0 0 958.000000 958.000000"
 preserveAspectRatio="xMidYMid meet">
<metadata>
Created by potrace 1.11, written by Peter Selinger 2001-2013
</metadata>
<g transform="translate(0.000000,958.000000) scale(0.100000,-0.100000)"
fill="#000000" stroke="none">
<path d="M6913 8508 c-2 -5 -12 -8 -22 -8 -25 0 -159 -68 -195 -99 -29 -25
-37 -34 -84 -89 -31 -38 -79 -138 -93 -197 -9 -38 -13 -418 -14 -1557 0 -830
1 -1508 3 -1508 1 0 19 8 40 19 53 27 167 59 237 67 79 9 187 11 200 5 6 -3
28 -7 50 -8 43 -3 174 -40 189 -55 6 -4 16 -8 24 -8 8 0 26 -9 42 -20 15 -11
29 -17 32 -14 3 2 11 -2 18 -11 7 -8 17 -15 22 -15 11 0 124 -76 152 -102 11
-10 25 -18 30 -18 8 0 11 468 11 1583 -1 1287 -3 1592 -14 1637 -33 132 -122
258 -230 325 -31 19 -59 34 -62 32 -3 -1 -13 4 -21 10 -26 22 -141 42 -226 40
-46 -1 -86 -5 -89 -9z"/>
<path d="M3318 7885 c-90 -30 -148 -66 -212 -128 -45 -45 -116 -142 -116 -160
0 -3 -5 -18 -11 -34 -6 -15 -11 -29 -11 -30 -22 -91 -24 -147 -21 -648 2 -297
5 -818 6 -1157 1 -340 6 -618 10 -618 4 0 3 -9 -3 -19 -7 -14 -7 -22 0 -26 6
-4 7 -12 3 -18 -11 -17 -11 -29 -1 -49 5 -10 5 -18 1 -18 -7 0 -9 -53 -3 -70
3 -7 2 -123 0 -135 -1 -5 -1 -12 0 -15 1 -3 3 -264 4 -580 3 -633 3 -629 -57
-672 -17 -13 -38 -24 -47 -26 -8 -3 -330 -5 -715 -6 -564 -1 -705 -4 -725 -15
-27 -15 -99 -87 -101 -102 -1 -5 -2 -13 -3 -18 0 -5 -4 -12 -7 -15 -4 -4 -4
-21 -2 -39 3 -18 5 -39 6 -47 2 -8 8 -25 15 -38 34 -59 74 -88 139 -98 21 -3
41 -8 46 -11 4 -2 7 1 7 7 0 7 6 8 19 1 10 -6 21 -8 24 -5 8 8 57 12 61 5 6
-8 82 -4 98 5 6 4 8 3 5 -3 -4 -6 10 -7 38 -3 25 4 45 4 45 1 0 -3 11 -6 25
-6 14 0 25 3 25 7 0 4 12 3 28 -3 15 -6 27 -10 27 -10 0 0 12 4 28 10 15 6 27
7 27 2 0 -5 18 -5 40 -1 22 4 40 4 40 -1 0 -5 11 -4 25 1 13 5 26 6 29 2 5 -9
82 -6 98 4 6 4 8 3 5 -3 -4 -6 10 -7 38 -3 25 4 45 4 45 1 0 -3 37 -5 82 -3
147 5 155 4 213 -24 97 -46 116 -206 34 -283 -44 -40 -80 -50 -202 -52 -136
-2 -174 -16 -221 -81 -21 -29 -28 -51 -30 -95 -1 -32 3 -67 9 -78 53 -100 89
-115 276 -116 177 -1 224 -16 273 -91 22 -34 26 -168 5 -168 -4 0 -9 -8 -11
-18 -7 -25 -72 -74 -106 -79 -15 -3 -130 -6 -257 -7 -188 -2 -237 -5 -268 -19
-41 -18 -67 -40 -67 -56 0 -6 -4 -11 -8 -11 -17 0 -35 -79 -29 -125 10 -66 37
-105 102 -143 28 -16 99 -17 990 -17 l961 -1 46 -29 c25 -17 72 -48 104 -70
33 -21 68 -44 79 -50 50 -28 70 -40 75 -46 3 -3 26 -16 52 -28 27 -13 50 -27
54 -32 3 -5 12 -9 21 -9 8 0 27 -8 41 -19 15 -10 38 -22 50 -26 13 -4 45 -16
70 -28 26 -11 47 -19 47 -17 0 2 18 -6 40 -17 22 -12 42 -21 45 -21 7 -1 42
-13 65 -22 46 -19 257 -76 320 -86 22 -3 44 -8 48 -11 4 -2 22 -6 40 -8 54 -5
132 -17 137 -20 11 -6 236 -19 340 -19 109 0 296 10 340 18 14 3 68 12 120 20
98 16 102 17 185 36 51 11 208 56 235 67 8 4 17 7 20 8 3 0 30 9 60 20 30 11
58 18 63 17 4 -1 7 2 7 8 0 5 6 10 13 10 7 0 31 8 53 19 165 78 207 99 269
134 129 74 314 199 323 220 2 4 8 7 13 7 5 0 17 8 27 18 11 9 38 33 62 52 106
85 262 253 287 310 4 8 9 17 13 20 11 9 81 150 74 150 -3 0 -2 6 4 13 18 22
56 147 78 257 8 43 13 63 35 155 11 50 23 99 25 110 2 11 6 30 9 43 3 12 7 32
10 44 3 12 20 92 39 178 19 85 37 166 40 180 3 14 7 34 9 45 69 307 74 331 83
375 3 14 10 43 15 64 6 22 12 49 13 60 2 12 8 40 15 64 7 23 9 47 6 52 -3 5
-1 11 3 14 15 9 3 185 -16 231 -29 69 -79 156 -106 186 -27 29 -138 123 -270
229 -10 8 -23 20 -30 25 -6 6 -27 22 -46 35 -19 13 -37 27 -40 30 -7 7 -133
97 -190 135 -25 16 -47 33 -50 36 -3 3 -21 14 -40 25 -19 10 -37 22 -40 25 -6
8 -132 45 -180 53 -35 6 -138 17 -196 20 -16 2 -35 5 -40 9 -6 3 -16 2 -23 -3
-8 -4 -25 -4 -40 0 -26 7 -593 5 -771 -3 -413 -19 -454 -25 -575 -83 -122 -58
-205 -137 -259 -248 -48 -97 -56 -134 -58 -241 -2 -161 57 -302 174 -412 52
-50 68 -63 76 -63 4 0 19 -8 32 -17 14 -10 31 -18 39 -20 8 -1 17 -5 20 -10 3
-5 31 -15 61 -23 44 -11 150 -15 520 -16 256 0 479 -4 495 -7 17 -4 50 -9 75
-11 25 -3 60 -9 78 -15 18 -5 33 -9 35 -9 8 3 55 -17 70 -30 36 -32 9 -103
-39 -103 -11 -1 -38 6 -61 15 -50 18 -153 32 -240 31 -35 0 -63 2 -63 5 0 5
-287 4 -675 -2 -91 -1 -144 3 -200 16 -11 2 -20 5 -20 6 0 1 -10 3 -22 6 -13
2 -44 14 -70 26 -263 121 -418 368 -409 649 l3 88 -46 -44 c-25 -24 -57 -52
-71 -63 -57 -43 -171 -96 -230 -106 -14 -3 -25 -5 -25 -6 0 -4 -74 -11 -130
-12 -272 -4 -530 177 -621 437 -34 96 -35 149 -37 1498 -2 1262 -4 1345 -20
1392 -43 118 -84 182 -160 249 -44 40 -155 105 -191 113 -6 1 -22 5 -36 9 -14
4 -68 8 -120 9 -77 2 -108 -1 -162 -20z"/>
<path d="M5830 6387 c-3 -3 -23 -8 -45 -11 -22 -4 -53 -9 -70 -12 -16 -2 -63
-21 -103 -40 -94 -46 -188 -136 -231 -222 -64 -128 -64 -128 -65 -759 l-1
-571 62 63 c67 68 175 155 192 155 6 0 11 3 11 8 0 13 137 73 212 92 69 18
267 26 293 11 5 -2 24 -6 43 -8 19 -2 59 -11 90 -19 32 -9 72 -19 90 -24 18
-4 38 -13 46 -19 7 -6 15 -8 19 -5 3 3 3 202 1 442 -5 423 -7 460 -37 567 -6
21 -60 121 -73 135 -74 81 -118 120 -134 120 -6 0 -10 4 -10 8 0 5 -26 20 -57
34 -70 31 -87 36 -137 42 -21 3 -40 7 -43 10 -3 3 -14 1 -24 -4 -11 -7 -19 -6
-21 1 -2 6 -6 8 -8 6z"/>
<path d="M4548 6260 c-16 -4 -28 -6 -28 -3 0 3 -6 0 -13 -6 -8 -6 -17 -8 -20
-4 -4 3 -7 1 -7 -6 0 -7 -5 -9 -11 -5 -6 3 -14 3 -18 -2 -3 -5 -27 -20 -53
-33 -98 -49 -186 -155 -239 -286 l-23 -60 -3 -540 c-1 -325 2 -544 7 -551 6
-6 8 -13 5 -16 -6 -5 17 -76 37 -118 34 -70 97 -147 167 -203 28 -22 137 -76
171 -83 236 -52 448 31 576 223 40 60 70 141 82 223 4 30 7 276 7 545 -1 536
0 526 -63 655 -53 108 -240 260 -320 260 -12 0 -23 4 -26 8 -7 11 -194 13
-228 2z"/>
<path d="M1640 2740 c-125 -7 -164 -28 -205 -109 -24 -48 -17 -134 15 -183 43
-64 89 -78 251 -78 113 0 148 3 177 17 126 60 143 236 31 316 -45 32 -133 44
-269 37z"/>
</g>
</svg>
